<?xml version="1.0"?>
<svg width="1000" height="1000" xmlns="http://www.w3.org/2000/svg" xmlns:svg="http://www.w3.org/2000/svg" xmlns:xlink="http://www.w3.org/1999/xlink">
 <defs>
  <symbol height="24" id="svg_10" viewBox="0 0 24 24" width="24" xmlns="http://www.w3.org/2000/svg">
   <path d="m15.602,4.075c2.201,1.174 4.904,3.254 6.398,5.252c-1.286,-0.9 -3.011,-1.027 -5.058,-0.549c0.222,-1.469 -0.185,-3.535 -1.34,-4.703zm-0.825,6.925s1.522,-7 -3.335,-7l-5.442,0l0,20l16,0l0,-10.629c0,-3.42 -4.214,-3.116 -7.223,-2.371zm-0.318,-8l-1.459,-1l-9,0l0,20l1,0l0,-19l9.459,0zm-2.443,-2l-1.5,-1l-8.516,0l0,20l1,0l0,-19l9.016,0z"/>
  </symbol>
  <symbol clip-rule="evenodd" height="24" id="svg_13" width="24" xmlns="http://www.w3.org/2000/svg">
   <path d="m10.409,0c4.857,0 3.335,8 3.335,8c3.009,-0.745 8.256,-0.419 8.256,3l0,11.515l-4.801,-4.801c0.507,-0.782 0.801,-1.714 0.801,-2.714c0,-2.76 -2.24,-5 -5,-5s-5,2.24 -5,5s2.24,5 5,5c1.037,0 2,-0.316 2.799,-0.858l4.858,4.858l-18.657,0l0,-24l8.409,0zm2.591,12c1.656,0 3,1.344 3,3s-1.344,3 -3,3s-3,-1.344 -3,-3s1.344,-3 3,-3zm1.568,-11.925c2.201,1.174 5.938,4.884 7.432,6.882c-1.286,-0.9 -4.044,-1.657 -6.091,-1.18c0.222,-1.468 -0.186,-4.534 -1.341,-5.702z"/>
  </symbol>
 </defs>
 <g class="layer">
  <title>Layer 1</title>
  <rect fill="#007f7f" height="1003" id="svg_18" stroke="#007fff" stroke-width="0" width="2861.000108" x="-771.900028" y="1458.25"/>
  <circle cx="499.933383" cy="500.083326" fill="#aad4ff" id="svg_4" r="499.298981" stroke="#007fff" stroke-width="0"/>
  <g id="svg_1">
   <path d="m363.305181,288.253254c-18.802426,-17.011948 -42.383615,-27.095018 -68.019227,-27.095018c-60.337476,0 -109.464954,56.051526 -110.98344,125.909102c-62.302575,27.198434 -106.651289,97.211134 -106.651289,179.220101c0,96.900886 61.855961,176.996655 142.112396,189.61342l0,1.758074l568.538909,0l0,-0.310248c79.273886,-5.377637 142.112396,-81.905551 142.112396,-175.54883c0,-90.333963 -58.461699,-164.741847 -133.716064,-174.721501c0.312629,-5.481053 0.491275,-11.065523 0.491275,-16.649992c0,-139.973691 -101.425912,-253.421153 -226.522337,-253.421153c-92.582966,0 -172.214142,62.153076 -207.36262,151.246046" fill="#003f7f" id="svg_2"/>
  </g>
  <g id="svg_9"/>
  <use fill="#ffffff" id="svg_11" transform="matrix(13.8889, 0, 0, 13.8889, 0, 0)" x="81.935998" xlink:href="#svg_10" y="29.159999"/>
  <g id="svg_12"/>
  <use fill="#ffffff" id="svg_14" transform="matrix(13.8889, 0, 0, 13.8889, 0, 0)" x="37.583993" xlink:href="#svg_13" y="26.495999"/>
  <g id="svg_15"/>
  <text fill="#ffffff" font-family="Times" font-size="24" font-style="normal" font-weight="normal" id="svg_16" stroke="#007fff" stroke-width="0" text-anchor="middle" transform="matrix(2.71168, 0, 0, 4.98208, 281.785, -2078.48)" x="-238.729058" xml:space="preserve" y="466.108154">{ REST }</text>
  <text fill="#ffffff" font-family="Times" font-size="24" font-style="normal" font-weight="bold" id="svg_17" stroke="#007fff" stroke-width="0" text-anchor="middle" transform="matrix(10.1215, 0, 0, 11.3065, -2031.47, -4999.41)" x="231.763217" xml:space="preserve" y="498.408078">API</text>
  <rect fill="#ffffff" height="63" id="svg_19" stroke="#007fff" stroke-width="0" width="83" x="1238.099976" y="793.25"/>
 </g>
</svg>