<?xml version="1.0" encoding="UTF-8" standalone="no"?><svg xmlns="http://www.w3.org/2000/svg" xmlns:xlink="http://www.w3.org/1999/xlink" contentScriptType="application/ecmascript" contentStyleType="text/css" height="938px" preserveAspectRatio="none" style="width:924px;height:938px;" version="1.1" viewBox="0 0 924 938" width="924px" zoomAndPan="magnify"><defs><filter height="300%" id="f19hwi7ld164q8" width="300%" x="-1" y="-1"><feGaussianBlur result="blurOut" stdDeviation="2.0"/><feColorMatrix in="blurOut" result="blurOut2" type="matrix" values="0 0 0 0 0 0 0 0 0 0 0 0 0 0 0 0 0 0 .4 0"/><feOffset dx="4.0" dy="4.0" in="blurOut2" result="blurOut3"/><feBlend in="SourceGraphic" in2="blurOut3" mode="normal"/></filter></defs><g><text fill="#000000" font-family="sans-serif" font-size="18" lengthAdjust="spacingAndGlyphs" textLength="360" x="285.5" y="16.708">Diagrama de navegacion de la aplicacion</text><!--class Home--><rect fill="#FEFECE" filter="url(#f19hwi7ld164q8)" height="53.9375" id="Home" style="stroke: #A80036; stroke-width: 1.5;" width="74" x="552.5" y="174.9531"/><ellipse cx="567.5" cy="193.9219" fill="#CD5C5C" rx="11" ry="11" style="stroke: #A80036; stroke-width: 1.0;"/><path d="M567.2969,189.5938 L567.2969,193.2188 L568.2969,193.2188 Q569.5,193.2188 569.9844,192.8125 Q570.4688,192.4063 570.4688,191.4063 Q570.4688,190.4063 569.9844,190 Q569.5,189.5938 568.2969,189.5938 L567.2969,189.5938 Z M564.8438,187.5313 L568.2031,187.5313 Q570.7656,187.5313 571.8906,188.4531 Q573.0156,189.3594 573.0156,191.4063 Q573.0156,193.4531 571.8906,194.375 Q570.7656,195.2813 568.2031,195.2813 L567.2969,195.2813 L567.2969,199.9219 L564.8438,199.9219 L564.8438,187.5313 Z "/><text fill="#000000" font-family="sans-serif" font-size="12" font-style="italic" lengthAdjust="spacingAndGlyphs" textLength="46" x="579.5" y="191.0918">«page»</text><text fill="#000000" font-family="sans-serif" font-size="12" lengthAdjust="spacingAndGlyphs" textLength="36" x="584.5" y="205.0605">Home</text><line style="stroke: #A80036; stroke-width: 1.5;" x1="553.5" x2="625.5" y1="212.8906" y2="212.8906"/><line style="stroke: #A80036; stroke-width: 1.5;" x1="553.5" x2="625.5" y1="220.8906" y2="220.8906"/><!--class API search results--><rect fill="#FEFECE" filter="url(#f19hwi7ld164q8)" height="53.9375" id="API search results" style="stroke: #A80036; stroke-width: 1.5;" width="145" x="498" y="335.9531"/><ellipse cx="513" cy="354.9219" fill="#CD5C5C" rx="11" ry="11" style="stroke: #A80036; stroke-width: 1.0;"/><path d="M512.7969,350.5938 L512.7969,354.2188 L513.7969,354.2188 Q515,354.2188 515.4844,353.8125 Q515.9688,353.4063 515.9688,352.4063 Q515.9688,351.4063 515.4844,351 Q515,350.5938 513.7969,350.5938 L512.7969,350.5938 Z M510.3438,348.5313 L513.7031,348.5313 Q516.2656,348.5313 517.3906,349.4531 Q518.5156,350.3594 518.5156,352.4063 Q518.5156,354.4531 517.3906,355.375 Q516.2656,356.2813 513.7031,356.2813 L512.7969,356.2813 L512.7969,360.9219 L510.3438,360.9219 L510.3438,348.5313 Z "/><text fill="#000000" font-family="sans-serif" font-size="12" font-style="italic" lengthAdjust="spacingAndGlyphs" textLength="46" x="560.5" y="352.0918">«page»</text><text fill="#000000" font-family="sans-serif" font-size="12" lengthAdjust="spacingAndGlyphs" textLength="113" x="527" y="366.0605">API search results</text><line style="stroke: #A80036; stroke-width: 1.5;" x1="499" x2="642" y1="373.8906" y2="373.8906"/><line style="stroke: #A80036; stroke-width: 1.5;" x1="499" x2="642" y1="381.8906" y2="381.8906"/><!--class Details API--><rect fill="#FEFECE" filter="url(#f19hwi7ld164q8)" height="53.9375" id="Details API" style="stroke: #A80036; stroke-width: 1.5;" width="98" x="342.5" y="466.9531"/><ellipse cx="357.5" cy="485.9219" fill="#CD5C5C" rx="11" ry="11" style="stroke: #A80036; stroke-width: 1.0;"/><path d="M357.2969,481.5938 L357.2969,485.2188 L358.2969,485.2188 Q359.5,485.2188 359.9844,484.8125 Q360.4688,484.4063 360.4688,483.4063 Q360.4688,482.4063 359.9844,482 Q359.5,481.5938 358.2969,481.5938 L357.2969,481.5938 Z M354.8438,479.5313 L358.2031,479.5313 Q360.7656,479.5313 361.8906,480.4531 Q363.0156,481.3594 363.0156,483.4063 Q363.0156,485.4531 361.8906,486.375 Q360.7656,487.2813 358.2031,487.2813 L357.2969,487.2813 L357.2969,491.9219 L354.8438,491.9219 L354.8438,479.5313 Z "/><text fill="#000000" font-family="sans-serif" font-size="12" font-style="italic" lengthAdjust="spacingAndGlyphs" textLength="46" x="381.5" y="483.0918">«page»</text><text fill="#000000" font-family="sans-serif" font-size="12" lengthAdjust="spacingAndGlyphs" textLength="66" x="371.5" y="497.0605">Details API</text><line style="stroke: #A80036; stroke-width: 1.5;" x1="343.5" x2="439.5" y1="504.8906" y2="504.8906"/><line style="stroke: #A80036; stroke-width: 1.5;" x1="343.5" x2="439.5" y1="512.8906" y2="512.8906"/><!--class Sign up--><rect fill="#FEFECE" filter="url(#f19hwi7ld164q8)" height="53.9375" id="Sign up" style="stroke: #A80036; stroke-width: 1.5;" width="79" x="678" y="335.9531"/><ellipse cx="693" cy="354.9219" fill="#CD5C5C" rx="11" ry="11" style="stroke: #A80036; stroke-width: 1.0;"/><path d="M692.7969,350.5938 L692.7969,354.2188 L693.7969,354.2188 Q695,354.2188 695.4844,353.8125 Q695.9688,353.4063 695.9688,352.4063 Q695.9688,351.4063 695.4844,351 Q695,350.5938 693.7969,350.5938 L692.7969,350.5938 Z M690.3438,348.5313 L693.7031,348.5313 Q696.2656,348.5313 697.3906,349.4531 Q698.5156,350.3594 698.5156,352.4063 Q698.5156,354.4531 697.3906,355.375 Q696.2656,356.2813 693.7031,356.2813 L692.7969,356.2813 L692.7969,360.9219 L690.3438,360.9219 L690.3438,348.5313 Z "/><text fill="#000000" font-family="sans-serif" font-size="12" font-style="italic" lengthAdjust="spacingAndGlyphs" textLength="42" x="709.5" y="352.0918">«form»</text><text fill="#000000" font-family="sans-serif" font-size="12" lengthAdjust="spacingAndGlyphs" textLength="47" x="707" y="366.0605">Sign up</text><line style="stroke: #A80036; stroke-width: 1.5;" x1="679" x2="756" y1="373.8906" y2="373.8906"/><line style="stroke: #A80036; stroke-width: 1.5;" x1="679" x2="756" y1="381.8906" y2="381.8906"/><!--class Sign in--><rect fill="#FEFECE" filter="url(#f19hwi7ld164q8)" height="53.9375" id="Sign in" style="stroke: #A80036; stroke-width: 1.5;" width="74" x="388.5" y="335.9531"/><ellipse cx="403.5" cy="354.9219" fill="#CD5C5C" rx="11" ry="11" style="stroke: #A80036; stroke-width: 1.0;"/><path d="M403.2969,350.5938 L403.2969,354.2188 L404.2969,354.2188 Q405.5,354.2188 405.9844,353.8125 Q406.4688,353.4063 406.4688,352.4063 Q406.4688,351.4063 405.9844,351 Q405.5,350.5938 404.2969,350.5938 L403.2969,350.5938 Z M400.8438,348.5313 L404.2031,348.5313 Q406.7656,348.5313 407.8906,349.4531 Q409.0156,350.3594 409.0156,352.4063 Q409.0156,354.4531 407.8906,355.375 Q406.7656,356.2813 404.2031,356.2813 L403.2969,356.2813 L403.2969,360.9219 L400.8438,360.9219 L400.8438,348.5313 Z "/><text fill="#000000" font-family="sans-serif" font-size="12" font-style="italic" lengthAdjust="spacingAndGlyphs" textLength="42" x="417.5" y="352.0918">«form»</text><text fill="#000000" font-family="sans-serif" font-size="12" lengthAdjust="spacingAndGlyphs" textLength="42" x="417.5" y="366.0605">Sign in</text><line style="stroke: #A80036; stroke-width: 1.5;" x1="389.5" x2="461.5" y1="373.8906" y2="373.8906"/><line style="stroke: #A80036; stroke-width: 1.5;" x1="389.5" x2="461.5" y1="381.8906" y2="381.8906"/><!--class Details provider--><rect fill="#FEFECE" filter="url(#f19hwi7ld164q8)" height="53.9375" id="Details provider" style="stroke: #A80036; stroke-width: 1.5;" width="130" x="154.5" y="612.9531"/><ellipse cx="169.5" cy="631.9219" fill="#CD5C5C" rx="11" ry="11" style="stroke: #A80036; stroke-width: 1.0;"/><path d="M169.2969,627.5938 L169.2969,631.2188 L170.2969,631.2188 Q171.5,631.2188 171.9844,630.8125 Q172.4688,630.4063 172.4688,629.4063 Q172.4688,628.4063 171.9844,628 Q171.5,627.5938 170.2969,627.5938 L169.2969,627.5938 Z M166.8438,625.5313 L170.2031,625.5313 Q172.7656,625.5313 173.8906,626.4531 Q175.0156,627.3594 175.0156,629.4063 Q175.0156,631.4531 173.8906,632.375 Q172.7656,633.2813 170.2031,633.2813 L169.2969,633.2813 L169.2969,637.9219 L166.8438,637.9219 L166.8438,625.5313 Z "/><text fill="#000000" font-family="sans-serif" font-size="12" font-style="italic" lengthAdjust="spacingAndGlyphs" textLength="46" x="209.5" y="629.0918">«page»</text><text fill="#000000" font-family="sans-serif" font-size="12" lengthAdjust="spacingAndGlyphs" textLength="98" x="183.5" y="643.0605">Details provider</text><line style="stroke: #A80036; stroke-width: 1.5;" x1="155.5" x2="283.5" y1="650.8906" y2="650.8906"/><line style="stroke: #A80036; stroke-width: 1.5;" x1="155.5" x2="283.5" y1="658.8906" y2="658.8906"/><!--class REST APIs list--><rect fill="#FEFECE" filter="url(#f19hwi7ld164q8)" height="53.9375" id="REST APIs list" style="stroke: #A80036; stroke-width: 1.5;" width="115" x="59" y="758.9531"/><ellipse cx="74" cy="777.9219" fill="#4169E1" rx="11" ry="11" style="stroke: #A80036; stroke-width: 1.0;"/><path d="M76.9688,783.5625 Q76.3906,783.8594 75.75,784 Q75.1094,784.1563 74.4063,784.1563 Q71.9063,784.1563 70.5781,782.5156 Q69.2656,780.8594 69.2656,777.7344 Q69.2656,774.6094 70.5781,772.9531 Q71.9063,771.2969 74.4063,771.2969 Q75.1094,771.2969 75.75,771.4531 Q76.4063,771.6094 76.9688,771.9063 L76.9688,774.625 Q76.3438,774.0469 75.75,773.7813 Q75.1563,773.5 74.5313,773.5 Q73.1875,773.5 72.5,774.5781 Q71.8125,775.6406 71.8125,777.7344 Q71.8125,779.8281 72.5,780.9063 Q73.1875,781.9688 74.5313,781.9688 Q75.1563,781.9688 75.75,781.7031 Q76.3438,781.4219 76.9688,780.8438 L76.9688,783.5625 Z "/><text fill="#000000" font-family="sans-serif" font-size="12" font-style="italic" lengthAdjust="spacingAndGlyphs" textLength="85" x="87" y="775.0918">«component»</text><text fill="#000000" font-family="sans-serif" font-size="12" lengthAdjust="spacingAndGlyphs" textLength="83" x="88" y="789.0605">REST APIs list</text><line style="stroke: #A80036; stroke-width: 1.5;" x1="60" x2="173" y1="796.8906" y2="796.8906"/><line style="stroke: #A80036; stroke-width: 1.5;" x1="60" x2="173" y1="804.8906" y2="804.8906"/><!--class REST APIs list --><rect fill="#FEFECE" filter="url(#f19hwi7ld164q8)" height="53.9375" id="REST APIs list " style="stroke: #A80036; stroke-width: 1.5;" width="119" x="511" y="466.9531"/><ellipse cx="526" cy="485.9219" fill="#4169E1" rx="11" ry="11" style="stroke: #A80036; stroke-width: 1.0;"/><path d="M528.9688,491.5625 Q528.3906,491.8594 527.75,492 Q527.1094,492.1563 526.4063,492.1563 Q523.9063,492.1563 522.5781,490.5156 Q521.2656,488.8594 521.2656,485.7344 Q521.2656,482.6094 522.5781,480.9531 Q523.9063,479.2969 526.4063,479.2969 Q527.1094,479.2969 527.75,479.4531 Q528.4063,479.6094 528.9688,479.9063 L528.9688,482.625 Q528.3438,482.0469 527.75,481.7813 Q527.1563,481.5 526.5313,481.5 Q525.1875,481.5 524.5,482.5781 Q523.8125,483.6406 523.8125,485.7344 Q523.8125,487.8281 524.5,488.9063 Q525.1875,489.9688 526.5313,489.9688 Q527.1563,489.9688 527.75,489.7031 Q528.3438,489.4219 528.9688,488.8438 L528.9688,491.5625 Z "/><text fill="#000000" font-family="sans-serif" font-size="12" font-style="italic" lengthAdjust="spacingAndGlyphs" textLength="85" x="541" y="483.0918">«component»</text><text fill="#000000" font-family="sans-serif" font-size="12" lengthAdjust="spacingAndGlyphs" textLength="83" x="540" y="497.0605">REST APIs list</text><line style="stroke: #A80036; stroke-width: 1.5;" x1="512" x2="629" y1="504.8906" y2="504.8906"/><line style="stroke: #A80036; stroke-width: 1.5;" x1="512" x2="629" y1="512.8906" y2="512.8906"/><!--class REST API--><rect fill="#FEFECE" filter="url(#f19hwi7ld164q8)" height="53.9375" id="REST API" style="stroke: #A80036; stroke-width: 1.5;" width="113" x="320" y="612.9531"/><ellipse cx="335" cy="631.9219" fill="#4169E1" rx="11" ry="11" style="stroke: #A80036; stroke-width: 1.0;"/><path d="M337.9688,637.5625 Q337.3906,637.8594 336.75,638 Q336.1094,638.1563 335.4063,638.1563 Q332.9063,638.1563 331.5781,636.5156 Q330.2656,634.8594 330.2656,631.7344 Q330.2656,628.6094 331.5781,626.9531 Q332.9063,625.2969 335.4063,625.2969 Q336.1094,625.2969 336.75,625.4531 Q337.4063,625.6094 337.9688,625.9063 L337.9688,628.625 Q337.3438,628.0469 336.75,627.7813 Q336.1563,627.5 335.5313,627.5 Q334.1875,627.5 333.5,628.5781 Q332.8125,629.6406 332.8125,631.7344 Q332.8125,633.8281 333.5,634.9063 Q334.1875,635.9688 335.5313,635.9688 Q336.1563,635.9688 336.75,635.7031 Q337.3438,635.4219 337.9688,634.8438 L337.9688,637.5625 Z "/><text fill="#000000" font-family="sans-serif" font-size="12" font-style="italic" lengthAdjust="spacingAndGlyphs" textLength="85" x="347" y="629.0918">«component»</text><text fill="#000000" font-family="sans-serif" font-size="12" lengthAdjust="spacingAndGlyphs" textLength="54" x="362.5" y="643.0605">REST API</text><line style="stroke: #A80036; stroke-width: 1.5;" x1="321" x2="432" y1="650.8906" y2="650.8906"/><line style="stroke: #A80036; stroke-width: 1.5;" x1="321" x2="432" y1="658.8906" y2="658.8906"/><!--class Versions list--><rect fill="#FEFECE" filter="url(#f19hwi7ld164q8)" height="53.9375" id="Versions list" style="stroke: #A80036; stroke-width: 1.5;" width="113" x="355" y="758.9531"/><ellipse cx="370" cy="777.9219" fill="#4169E1" rx="11" ry="11" style="stroke: #A80036; stroke-width: 1.0;"/><path d="M372.9688,783.5625 Q372.3906,783.8594 371.75,784 Q371.1094,784.1563 370.4063,784.1563 Q367.9063,784.1563 366.5781,782.5156 Q365.2656,780.8594 365.2656,777.7344 Q365.2656,774.6094 366.5781,772.9531 Q367.9063,771.2969 370.4063,771.2969 Q371.1094,771.2969 371.75,771.4531 Q372.4063,771.6094 372.9688,771.9063 L372.9688,774.625 Q372.3438,774.0469 371.75,773.7813 Q371.1563,773.5 370.5313,773.5 Q369.1875,773.5 368.5,774.5781 Q367.8125,775.6406 367.8125,777.7344 Q367.8125,779.8281 368.5,780.9063 Q369.1875,781.9688 370.5313,781.9688 Q371.1563,781.9688 371.75,781.7031 Q372.3438,781.4219 372.9688,780.8438 L372.9688,783.5625 Z "/><text fill="#000000" font-family="sans-serif" font-size="12" font-style="italic" lengthAdjust="spacingAndGlyphs" textLength="85" x="382" y="775.0918">«component»</text><text fill="#000000" font-family="sans-serif" font-size="12" lengthAdjust="spacingAndGlyphs" textLength="76" x="386.5" y="789.0605">Versions list</text><line style="stroke: #A80036; stroke-width: 1.5;" x1="356" x2="467" y1="796.8906" y2="796.8906"/><line style="stroke: #A80036; stroke-width: 1.5;" x1="356" x2="467" y1="804.8906" y2="804.8906"/><!--class Version--><rect fill="#FEFECE" filter="url(#f19hwi7ld164q8)" height="53.9375" id="Version" style="stroke: #A80036; stroke-width: 1.5;" width="113" x="355" y="873.9531"/><ellipse cx="370" cy="892.9219" fill="#4169E1" rx="11" ry="11" style="stroke: #A80036; stroke-width: 1.0;"/><path d="M372.9688,898.5625 Q372.3906,898.8594 371.75,899 Q371.1094,899.1563 370.4063,899.1563 Q367.9063,899.1563 366.5781,897.5156 Q365.2656,895.8594 365.2656,892.7344 Q365.2656,889.6094 366.5781,887.9531 Q367.9063,886.2969 370.4063,886.2969 Q371.1094,886.2969 371.75,886.4531 Q372.4063,886.6094 372.9688,886.9063 L372.9688,889.625 Q372.3438,889.0469 371.75,888.7813 Q371.1563,888.5 370.5313,888.5 Q369.1875,888.5 368.5,889.5781 Q367.8125,890.6406 367.8125,892.7344 Q367.8125,894.8281 368.5,895.9063 Q369.1875,896.9688 370.5313,896.9688 Q371.1563,896.9688 371.75,896.7031 Q372.3438,896.4219 372.9688,895.8438 L372.9688,898.5625 Z "/><text fill="#000000" font-family="sans-serif" font-size="12" font-style="italic" lengthAdjust="spacingAndGlyphs" textLength="85" x="382" y="890.0918">«component»</text><text fill="#000000" font-family="sans-serif" font-size="12" lengthAdjust="spacingAndGlyphs" textLength="47" x="401" y="904.0605">Version</text><line style="stroke: #A80036; stroke-width: 1.5;" x1="356" x2="467" y1="911.8906" y2="911.8906"/><line style="stroke: #A80036; stroke-width: 1.5;" x1="356" x2="467" y1="919.8906" y2="919.8906"/><!--class Provider--><rect fill="#FEFECE" filter="url(#f19hwi7ld164q8)" height="53.9375" id="Provider" style="stroke: #A80036; stroke-width: 1.5;" width="113" x="6" y="612.9531"/><ellipse cx="21" cy="631.9219" fill="#4169E1" rx="11" ry="11" style="stroke: #A80036; stroke-width: 1.0;"/><path d="M23.9688,637.5625 Q23.3906,637.8594 22.75,638 Q22.1094,638.1563 21.4063,638.1563 Q18.9063,638.1563 17.5781,636.5156 Q16.2656,634.8594 16.2656,631.7344 Q16.2656,628.6094 17.5781,626.9531 Q18.9063,625.2969 21.4063,625.2969 Q22.1094,625.2969 22.75,625.4531 Q23.4063,625.6094 23.9688,625.9063 L23.9688,628.625 Q23.3438,628.0469 22.75,627.7813 Q22.1563,627.5 21.5313,627.5 Q20.1875,627.5 19.5,628.5781 Q18.8125,629.6406 18.8125,631.7344 Q18.8125,633.8281 19.5,634.9063 Q20.1875,635.9688 21.5313,635.9688 Q22.1563,635.9688 22.75,635.7031 Q23.3438,635.4219 23.9688,634.8438 L23.9688,637.5625 Z "/><text fill="#000000" font-family="sans-serif" font-size="12" font-style="italic" lengthAdjust="spacingAndGlyphs" textLength="85" x="33" y="629.0918">«component»</text><text fill="#000000" font-family="sans-serif" font-size="12" lengthAdjust="spacingAndGlyphs" textLength="51" x="50" y="643.0605">Provider</text><line style="stroke: #A80036; stroke-width: 1.5;" x1="7" x2="118" y1="650.8906" y2="650.8906"/><line style="stroke: #A80036; stroke-width: 1.5;" x1="7" x2="118" y1="658.8906" y2="658.8906"/><!--class User profile--><rect fill="#FEFECE" filter="url(#f19hwi7ld164q8)" height="53.9375" id="User profile" style="stroke: #A80036; stroke-width: 1.5;" width="104" x="347.5" y="174.9531"/><ellipse cx="362.5" cy="193.9219" fill="#CD5C5C" rx="11" ry="11" style="stroke: #A80036; stroke-width: 1.0;"/><path d="M362.2969,189.5938 L362.2969,193.2188 L363.2969,193.2188 Q364.5,193.2188 364.9844,192.8125 Q365.4688,192.4063 365.4688,191.4063 Q365.4688,190.4063 364.9844,190 Q364.5,189.5938 363.2969,189.5938 L362.2969,189.5938 Z M359.8438,187.5313 L363.2031,187.5313 Q365.7656,187.5313 366.8906,188.4531 Q368.0156,189.3594 368.0156,191.4063 Q368.0156,193.4531 366.8906,194.375 Q365.7656,195.2813 363.2031,195.2813 L362.2969,195.2813 L362.2969,199.9219 L359.8438,199.9219 L359.8438,187.5313 Z "/><text fill="#000000" font-family="sans-serif" font-size="12" font-style="italic" lengthAdjust="spacingAndGlyphs" textLength="46" x="389.5" y="191.0918">«page»</text><text fill="#000000" font-family="sans-serif" font-size="12" lengthAdjust="spacingAndGlyphs" textLength="72" x="376.5" y="205.0605">User profile</text><line style="stroke: #A80036; stroke-width: 1.5;" x1="348.5" x2="450.5" y1="212.8906" y2="212.8906"/><line style="stroke: #A80036; stroke-width: 1.5;" x1="348.5" x2="450.5" y1="220.8906" y2="220.8906"/><!--class Edit profile--><rect fill="#FEFECE" filter="url(#f19hwi7ld164q8)" height="53.9375" id="Edit profile" style="stroke: #A80036; stroke-width: 1.5;" width="99" x="146" y="174.9531"/><ellipse cx="161" cy="193.9219" fill="#CD5C5C" rx="11" ry="11" style="stroke: #A80036; stroke-width: 1.0;"/><path d="M160.7969,189.5938 L160.7969,193.2188 L161.7969,193.2188 Q163,193.2188 163.4844,192.8125 Q163.9688,192.4063 163.9688,191.4063 Q163.9688,190.4063 163.4844,190 Q163,189.5938 161.7969,189.5938 L160.7969,189.5938 Z M158.3438,187.5313 L161.7031,187.5313 Q164.2656,187.5313 165.3906,188.4531 Q166.5156,189.3594 166.5156,191.4063 Q166.5156,193.4531 165.3906,194.375 Q164.2656,195.2813 161.7031,195.2813 L160.7969,195.2813 L160.7969,199.9219 L158.3438,199.9219 L158.3438,187.5313 Z "/><text fill="#000000" font-family="sans-serif" font-size="12" font-style="italic" lengthAdjust="spacingAndGlyphs" textLength="42" x="187.5" y="191.0918">«form»</text><text fill="#000000" font-family="sans-serif" font-size="12" lengthAdjust="spacingAndGlyphs" textLength="67" x="175" y="205.0605">Edit profile</text><line style="stroke: #A80036; stroke-width: 1.5;" x1="147" x2="244" y1="212.8906" y2="212.8906"/><line style="stroke: #A80036; stroke-width: 1.5;" x1="147" x2="244" y1="220.8906" y2="220.8906"/><!--class Contributions list--><rect fill="#FEFECE" filter="url(#f19hwi7ld164q8)" height="53.9375" id="Contributions list" style="stroke: #A80036; stroke-width: 1.5;" width="138" x="215.5" y="335.9531"/><ellipse cx="230.5" cy="354.9219" fill="#4169E1" rx="11" ry="11" style="stroke: #A80036; stroke-width: 1.0;"/><path d="M233.4688,360.5625 Q232.8906,360.8594 232.25,361 Q231.6094,361.1563 230.9063,361.1563 Q228.4063,361.1563 227.0781,359.5156 Q225.7656,357.8594 225.7656,354.7344 Q225.7656,351.6094 227.0781,349.9531 Q228.4063,348.2969 230.9063,348.2969 Q231.6094,348.2969 232.25,348.4531 Q232.9063,348.6094 233.4688,348.9063 L233.4688,351.625 Q232.8438,351.0469 232.25,350.7813 Q231.6563,350.5 231.0313,350.5 Q229.6875,350.5 229,351.5781 Q228.3125,352.6406 228.3125,354.7344 Q228.3125,356.8281 229,357.9063 Q229.6875,358.9688 231.0313,358.9688 Q231.6563,358.9688 232.25,358.7031 Q232.8438,358.4219 233.4688,357.8438 L233.4688,360.5625 Z "/><text fill="#000000" font-family="sans-serif" font-size="12" font-style="italic" lengthAdjust="spacingAndGlyphs" textLength="85" x="255" y="352.0918">«component»</text><text fill="#000000" font-family="sans-serif" font-size="12" lengthAdjust="spacingAndGlyphs" textLength="106" x="244.5" y="366.0605">Contributions list</text><line style="stroke: #A80036; stroke-width: 1.5;" x1="216.5" x2="352.5" y1="373.8906" y2="373.8906"/><line style="stroke: #A80036; stroke-width: 1.5;" x1="216.5" x2="352.5" y1="381.8906" y2="381.8906"/><!--class Link provider--><rect fill="#FEFECE" filter="url(#f19hwi7ld164q8)" height="53.9375" id="Link provider" style="stroke: #A80036; stroke-width: 1.5;" width="111" x="801" y="335.9531"/><ellipse cx="816" cy="354.9219" fill="#CD5C5C" rx="11" ry="11" style="stroke: #A80036; stroke-width: 1.0;"/><path d="M815.7969,350.5938 L815.7969,354.2188 L816.7969,354.2188 Q818,354.2188 818.4844,353.8125 Q818.9688,353.4063 818.9688,352.4063 Q818.9688,351.4063 818.4844,351 Q818,350.5938 816.7969,350.5938 L815.7969,350.5938 Z M813.3438,348.5313 L816.7031,348.5313 Q819.2656,348.5313 820.3906,349.4531 Q821.5156,350.3594 821.5156,352.4063 Q821.5156,354.4531 820.3906,355.375 Q819.2656,356.2813 816.7031,356.2813 L815.7969,356.2813 L815.7969,360.9219 L813.3438,360.9219 L813.3438,348.5313 Z "/><text fill="#000000" font-family="sans-serif" font-size="12" font-style="italic" lengthAdjust="spacingAndGlyphs" textLength="42" x="848.5" y="352.0918">«form»</text><text fill="#000000" font-family="sans-serif" font-size="12" lengthAdjust="spacingAndGlyphs" textLength="79" x="830" y="366.0605">Link provider</text><line style="stroke: #A80036; stroke-width: 1.5;" x1="802" x2="911" y1="373.8906" y2="373.8906"/><line style="stroke: #A80036; stroke-width: 1.5;" x1="802" x2="911" y1="381.8906" y2="381.8906"/><!--class Add provider--><rect fill="#FEFECE" filter="url(#f19hwi7ld164q8)" height="53.9375" id="Add provider" style="stroke: #A80036; stroke-width: 1.5;" width="113" x="800" y="466.9531"/><ellipse cx="815" cy="485.9219" fill="#4169E1" rx="11" ry="11" style="stroke: #A80036; stroke-width: 1.0;"/><path d="M817.9688,491.5625 Q817.3906,491.8594 816.75,492 Q816.1094,492.1563 815.4063,492.1563 Q812.9063,492.1563 811.5781,490.5156 Q810.2656,488.8594 810.2656,485.7344 Q810.2656,482.6094 811.5781,480.9531 Q812.9063,479.2969 815.4063,479.2969 Q816.1094,479.2969 816.75,479.4531 Q817.4063,479.6094 817.9688,479.9063 L817.9688,482.625 Q817.3438,482.0469 816.75,481.7813 Q816.1563,481.5 815.5313,481.5 Q814.1875,481.5 813.5,482.5781 Q812.8125,483.6406 812.8125,485.7344 Q812.8125,487.8281 813.5,488.9063 Q814.1875,489.9688 815.5313,489.9688 Q816.1563,489.9688 816.75,489.7031 Q817.3438,489.4219 817.9688,488.8438 L817.9688,491.5625 Z "/><text fill="#000000" font-family="sans-serif" font-size="12" font-style="italic" lengthAdjust="spacingAndGlyphs" textLength="85" x="827" y="483.0918">«component»</text><text fill="#000000" font-family="sans-serif" font-size="12" lengthAdjust="spacingAndGlyphs" textLength="79" x="830" y="497.0605">Add provider</text><line style="stroke: #A80036; stroke-width: 1.5;" x1="801" x2="912" y1="504.8906" y2="504.8906"/><line style="stroke: #A80036; stroke-width: 1.5;" x1="801" x2="912" y1="512.8906" y2="512.8906"/><!--class Edit provider--><rect fill="#FEFECE" filter="url(#f19hwi7ld164q8)" height="53.9375" id="Edit provider" style="stroke: #A80036; stroke-width: 1.5;" width="111" x="209" y="758.9531"/><ellipse cx="224" cy="777.9219" fill="#CD5C5C" rx="11" ry="11" style="stroke: #A80036; stroke-width: 1.0;"/><path d="M223.7969,773.5938 L223.7969,777.2188 L224.7969,777.2188 Q226,777.2188 226.4844,776.8125 Q226.9688,776.4063 226.9688,775.4063 Q226.9688,774.4063 226.4844,774 Q226,773.5938 224.7969,773.5938 L223.7969,773.5938 Z M221.3438,771.5313 L224.7031,771.5313 Q227.2656,771.5313 228.3906,772.4531 Q229.5156,773.3594 229.5156,775.4063 Q229.5156,777.4531 228.3906,778.375 Q227.2656,779.2813 224.7031,779.2813 L223.7969,779.2813 L223.7969,783.9219 L221.3438,783.9219 L221.3438,771.5313 Z "/><text fill="#000000" font-family="sans-serif" font-size="12" font-style="italic" lengthAdjust="spacingAndGlyphs" textLength="42" x="256.5" y="775.0918">«form»</text><text fill="#000000" font-family="sans-serif" font-size="12" lengthAdjust="spacingAndGlyphs" textLength="79" x="238" y="789.0605">Edit provider</text><line style="stroke: #A80036; stroke-width: 1.5;" x1="210" x2="319" y1="796.8906" y2="796.8906"/><line style="stroke: #A80036; stroke-width: 1.5;" x1="210" x2="319" y1="804.8906" y2="804.8906"/><!--class Contribution--><rect fill="#FEFECE" filter="url(#f19hwi7ld164q8)" height="53.9375" id="Contribution" style="stroke: #A80036; stroke-width: 1.5;" width="113" x="67" y="335.9531"/><ellipse cx="82" cy="354.9219" fill="#4169E1" rx="11" ry="11" style="stroke: #A80036; stroke-width: 1.0;"/><path d="M84.9688,360.5625 Q84.3906,360.8594 83.75,361 Q83.1094,361.1563 82.4063,361.1563 Q79.9063,361.1563 78.5781,359.5156 Q77.2656,357.8594 77.2656,354.7344 Q77.2656,351.6094 78.5781,349.9531 Q79.9063,348.2969 82.4063,348.2969 Q83.1094,348.2969 83.75,348.4531 Q84.4063,348.6094 84.9688,348.9063 L84.9688,351.625 Q84.3438,351.0469 83.75,350.7813 Q83.1563,350.5 82.5313,350.5 Q81.1875,350.5 80.5,351.5781 Q79.8125,352.6406 79.8125,354.7344 Q79.8125,356.8281 80.5,357.9063 Q81.1875,358.9688 82.5313,358.9688 Q83.1563,358.9688 83.75,358.7031 Q84.3438,358.4219 84.9688,357.8438 L84.9688,360.5625 Z "/><text fill="#000000" font-family="sans-serif" font-size="12" font-style="italic" lengthAdjust="spacingAndGlyphs" textLength="85" x="94" y="352.0918">«component»</text><text fill="#000000" font-family="sans-serif" font-size="12" lengthAdjust="spacingAndGlyphs" textLength="77" x="98" y="366.0605">Contribution</text><line style="stroke: #A80036; stroke-width: 1.5;" x1="68" x2="179" y1="373.8906" y2="373.8906"/><line style="stroke: #A80036; stroke-width: 1.5;" x1="68" x2="179" y1="381.8906" y2="381.8906"/><!--class Add API--><rect fill="#FEFECE" filter="url(#f19hwi7ld164q8)" height="53.9375" id="Add API" style="stroke: #A80036; stroke-width: 1.5;" width="79" x="786" y="174.9531"/><ellipse cx="801" cy="193.9219" fill="#CD5C5C" rx="11" ry="11" style="stroke: #A80036; stroke-width: 1.0;"/><path d="M800.7969,189.5938 L800.7969,193.2188 L801.7969,193.2188 Q803,193.2188 803.4844,192.8125 Q803.9688,192.4063 803.9688,191.4063 Q803.9688,190.4063 803.4844,190 Q803,189.5938 801.7969,189.5938 L800.7969,189.5938 Z M798.3438,187.5313 L801.7031,187.5313 Q804.2656,187.5313 805.3906,188.4531 Q806.5156,189.3594 806.5156,191.4063 Q806.5156,193.4531 805.3906,194.375 Q804.2656,195.2813 801.7031,195.2813 L800.7969,195.2813 L800.7969,199.9219 L798.3438,199.9219 L798.3438,187.5313 Z "/><text fill="#000000" font-family="sans-serif" font-size="12" font-style="italic" lengthAdjust="spacingAndGlyphs" textLength="42" x="817.5" y="191.0918">«form»</text><text fill="#000000" font-family="sans-serif" font-size="12" lengthAdjust="spacingAndGlyphs" textLength="47" x="815" y="205.0605">Add API</text><line style="stroke: #A80036; stroke-width: 1.5;" x1="787" x2="864" y1="212.8906" y2="212.8906"/><line style="stroke: #A80036; stroke-width: 1.5;" x1="787" x2="864" y1="220.8906" y2="220.8906"/><!--class Edit API--><rect fill="#FEFECE" filter="url(#f19hwi7ld164q8)" height="53.9375" id="Edit API" style="stroke: #A80036; stroke-width: 1.5;" width="79" x="468" y="612.9531"/><ellipse cx="483" cy="631.9219" fill="#CD5C5C" rx="11" ry="11" style="stroke: #A80036; stroke-width: 1.0;"/><path d="M482.7969,627.5938 L482.7969,631.2188 L483.7969,631.2188 Q485,631.2188 485.4844,630.8125 Q485.9688,630.4063 485.9688,629.4063 Q485.9688,628.4063 485.4844,628 Q485,627.5938 483.7969,627.5938 L482.7969,627.5938 Z M480.3438,625.5313 L483.7031,625.5313 Q486.2656,625.5313 487.3906,626.4531 Q488.5156,627.3594 488.5156,629.4063 Q488.5156,631.4531 487.3906,632.375 Q486.2656,633.2813 483.7031,633.2813 L482.7969,633.2813 L482.7969,637.9219 L480.3438,637.9219 L480.3438,625.5313 Z "/><text fill="#000000" font-family="sans-serif" font-size="12" font-style="italic" lengthAdjust="spacingAndGlyphs" textLength="42" x="499.5" y="629.0918">«form»</text><text fill="#000000" font-family="sans-serif" font-size="12" lengthAdjust="spacingAndGlyphs" textLength="47" x="497" y="643.0605">Edit API</text><line style="stroke: #A80036; stroke-width: 1.5;" x1="469" x2="546" y1="650.8906" y2="650.8906"/><line style="stroke: #A80036; stroke-width: 1.5;" x1="469" x2="546" y1="658.8906" y2="658.8906"/><!--class Add version--><rect fill="#FEFECE" filter="url(#f19hwi7ld164q8)" height="53.9375" id="Add version" style="stroke: #A80036; stroke-width: 1.5;" width="105" x="534" y="758.9531"/><ellipse cx="549" cy="777.9219" fill="#CD5C5C" rx="11" ry="11" style="stroke: #A80036; stroke-width: 1.0;"/><path d="M548.7969,773.5938 L548.7969,777.2188 L549.7969,777.2188 Q551,777.2188 551.4844,776.8125 Q551.9688,776.4063 551.9688,775.4063 Q551.9688,774.4063 551.4844,774 Q551,773.5938 549.7969,773.5938 L548.7969,773.5938 Z M546.3438,771.5313 L549.7031,771.5313 Q552.2656,771.5313 553.3906,772.4531 Q554.5156,773.3594 554.5156,775.4063 Q554.5156,777.4531 553.3906,778.375 Q552.2656,779.2813 549.7031,779.2813 L548.7969,779.2813 L548.7969,783.9219 L546.3438,783.9219 L546.3438,771.5313 Z "/><text fill="#000000" font-family="sans-serif" font-size="12" font-style="italic" lengthAdjust="spacingAndGlyphs" textLength="42" x="578.5" y="775.0918">«form»</text><text fill="#000000" font-family="sans-serif" font-size="12" lengthAdjust="spacingAndGlyphs" textLength="73" x="563" y="789.0605">Add version</text><line style="stroke: #A80036; stroke-width: 1.5;" x1="535" x2="638" y1="796.8906" y2="796.8906"/><line style="stroke: #A80036; stroke-width: 1.5;" x1="535" x2="638" y1="804.8906" y2="804.8906"/><!--class Users list--><rect fill="#FEFECE" filter="url(#f19hwi7ld164q8)" height="53.9375" id="Users list" style="stroke: #A80036; stroke-width: 1.5;" width="90" x="448.5" y="28.9531"/><ellipse cx="463.5" cy="47.9219" fill="#CD5C5C" rx="11" ry="11" style="stroke: #A80036; stroke-width: 1.0;"/><path d="M463.2969,43.5938 L463.2969,47.2188 L464.2969,47.2188 Q465.5,47.2188 465.9844,46.8125 Q466.4688,46.4063 466.4688,45.4063 Q466.4688,44.4063 465.9844,44 Q465.5,43.5938 464.2969,43.5938 L463.2969,43.5938 Z M460.8438,41.5313 L464.2031,41.5313 Q466.7656,41.5313 467.8906,42.4531 Q469.0156,43.3594 469.0156,45.4063 Q469.0156,47.4531 467.8906,48.375 Q466.7656,49.2813 464.2031,49.2813 L463.2969,49.2813 L463.2969,53.9219 L460.8438,53.9219 L460.8438,41.5313 Z "/><text fill="#000000" font-family="sans-serif" font-size="12" font-style="italic" lengthAdjust="spacingAndGlyphs" textLength="46" x="483.5" y="45.0918">«page»</text><text fill="#000000" font-family="sans-serif" font-size="12" lengthAdjust="spacingAndGlyphs" textLength="58" x="477.5" y="59.0605">Users list</text><line style="stroke: #A80036; stroke-width: 1.5;" x1="449.5" x2="537.5" y1="66.8906" y2="66.8906"/><line style="stroke: #A80036; stroke-width: 1.5;" x1="449.5" x2="537.5" y1="74.8906" y2="74.8906"/><!--link Home to API search results--><path d="M586.2769,229.2646 C582.9641,257.3362 577.8081,301.0269 574.2989,330.762 " fill="none" id="Home-&gt;API search results" style="stroke: #A80036; stroke-width: 1.0;"/><polygon fill="#A80036" points="573.7071,335.7768,578.7346,327.3078,574.2932,330.8113,570.7897,326.37,573.7071,335.7768" style="stroke: #A80036; stroke-width: 1.0;"/><text fill="#000000" font-family="sans-serif" font-size="13" lengthAdjust="spacingAndGlyphs" textLength="66" x="583.5" y="279.52">«process»</text><text fill="#000000" font-family="sans-serif" font-size="13" lengthAdjust="spacingAndGlyphs" textLength="43" x="595" y="294.6528">search</text><!--link Home to Sign up--><path d="M626.8571,228.6779 C637.8149,237.5619 649.3107,248.0031 658.5,258.9531 C676.9382,280.9242 692.6604,309.4747 703.2272,331.1019 " fill="none" id="Home-&gt;Sign up" style="stroke: #A80036; stroke-width: 1.0;"/><polygon fill="#A80036" points="705.4029,335.607,705.0909,325.7631,703.2285,331.1046,697.887,329.2422,705.4029,335.607" style="stroke: #A80036; stroke-width: 1.0;"/><text fill="#000000" font-family="sans-serif" font-size="13" lengthAdjust="spacingAndGlyphs" textLength="37" x="691.5" y="287.02">«link»</text><!--link Home to Sign in--><path d="M552.0904,210.6488 C499.4274,223.2623 408.7765,246.4852 399.5,258.9531 C383.9422,279.8633 393.1857,309.0174 404.752,331.1391 " fill="none" id="Home-&gt;Sign in" style="stroke: #A80036; stroke-width: 1.0;"/><polygon fill="#A80036" points="407.2473,335.7473,406.4793,325.9285,404.8665,331.3505,399.4444,329.7378,407.2473,335.7473" style="stroke: #A80036; stroke-width: 1.0;"/><text fill="#000000" font-family="sans-serif" font-size="13" lengthAdjust="spacingAndGlyphs" textLength="37" x="400.5" y="287.02">«link»</text><!--link Sign in to Home--><path d="M441.8549,335.6797 C456.0703,313.3954 478.1619,281.9348 502.5,258.9531 C515.9449,246.2575 532.555,234.5979 547.6464,225.177 " fill="none" id="Sign in-&gt;Home" style="stroke: #A80036; stroke-width: 1.0;"/><polygon fill="#A80036" points="552.276,222.3264,542.515,223.6391,548.0184,224.948,546.7095,230.4513,552.276,222.3264" style="stroke: #A80036; stroke-width: 1.0;"/><text fill="#000000" font-family="sans-serif" font-size="13" lengthAdjust="spacingAndGlyphs" textLength="66" x="503.5" y="279.52">«process»</text><text fill="#000000" font-family="sans-serif" font-size="13" lengthAdjust="spacingAndGlyphs" textLength="34" x="519.5" y="294.6528">log in</text><!--reverse link User profile to Home--><path d="M456.9847,201.9531 C487.996,201.9531 525.3613,201.9531 552.4984,201.9531 " fill="none" id="User profile&lt;-Home" style="stroke: #A80036; stroke-width: 1.0;"/><polygon fill="#A80036" points="451.6696,201.9531,460.6696,205.9531,456.6696,201.9531,460.6696,197.9531,451.6696,201.9531" style="stroke: #A80036; stroke-width: 1.0;"/><text fill="#000000" font-family="sans-serif" font-size="13" lengthAdjust="spacingAndGlyphs" textLength="37" x="483.5" y="180.02">«link»</text><text fill="#000000" font-family="sans-serif" font-size="13" lengthAdjust="spacingAndGlyphs" textLength="64" x="470" y="195.1528">(if logged)</text><!--reverse link Edit profile to User profile--><path d="M250.766,217.4422 C259.4004,219.3139 268.2707,220.9248 276.75,221.9531 C300.0067,224.7734 325.5993,221.6104 347.3702,217.0293 " fill="none" id="Edit profile&lt;-User profile" style="stroke: #A80036; stroke-width: 1.0;"/><polygon fill="#A80036" points="245.4259,216.2459,253.3338,222.1166,250.305,217.3389,255.0826,214.31,245.4259,216.2459" style="stroke: #A80036; stroke-width: 1.0;"/><text fill="#000000" font-family="sans-serif" font-size="13" lengthAdjust="spacingAndGlyphs" textLength="37" x="277.75" y="218.02">«link»</text><!--link Edit profile to User profile--><path d="M245.1432,201.9531 C274.4647,201.9531 311.7059,201.9531 342.2617,201.9531 " fill="none" id="Edit profile-&gt;User profile" style="stroke: #A80036; stroke-width: 1.0;"/><polygon fill="#A80036" points="347.4949,201.9531,338.4949,197.9531,342.4949,201.9531,338.4949,205.9531,347.4949,201.9531" style="stroke: #A80036; stroke-width: 1.0;"/><text fill="#000000" font-family="sans-serif" font-size="13" lengthAdjust="spacingAndGlyphs" textLength="66" x="263.25" y="180.02">«process»</text><text fill="#000000" font-family="sans-serif" font-size="13" lengthAdjust="spacingAndGlyphs" textLength="24" x="284.25" y="195.1528">edit</text><!--reverse link User profile to Contributions list--><path d="M372.3391,239.9784 C351.3071,269.4231 322.6863,309.4923 303.9116,335.7768 " fill="none" id="User profile&lt;-Contributions list" style="stroke: #A80036; stroke-width: 1.0;"/><polygon fill="#A80036" points="379.9918,229.2646,373.2494,231.8221,373.0169,239.0294,379.7593,236.472,379.9918,229.2646" style="stroke: #A80036; stroke-width: 1.0;"/><!--link Home to Add API--><path d="M626.6346,201.9531 C668.3811,201.9531 736.1459,201.9531 780.7717,201.9531 " fill="none" id="Home-&gt;Add API" style="stroke: #A80036; stroke-width: 1.0;"/><polygon fill="#A80036" points="785.8253,201.9531,776.8253,197.9531,780.8253,201.9531,776.8253,205.9531,785.8253,201.9531" style="stroke: #A80036; stroke-width: 1.0;"/><text fill="#000000" font-family="sans-serif" font-size="13" lengthAdjust="spacingAndGlyphs" textLength="37" x="687.75" y="180.02">«link»</text><text fill="#000000" font-family="sans-serif" font-size="13" lengthAdjust="spacingAndGlyphs" textLength="64" x="674.25" y="195.1528">(if logged)</text><!--link Add API to Link provider--><path d="M836.4764,229.119 C839.8535,238.4417 843.266,249.0287 845.5,258.9531 C850.8299,282.6304 853.5929,309.9365 855.0164,330.6262 " fill="none" id="Add API-&gt;Link provider" style="stroke: #A80036; stroke-width: 1.0;"/><polygon fill="#A80036" points="855.3502,335.7376,858.7551,326.4961,855.0243,330.7483,850.7722,327.0174,855.3502,335.7376" style="stroke: #A80036; stroke-width: 1.0;"/><text fill="#000000" font-family="sans-serif" font-size="13" lengthAdjust="spacingAndGlyphs" textLength="37" x="853.5" y="279.52">«link»</text><text fill="#000000" font-family="sans-serif" font-size="13" lengthAdjust="spacingAndGlyphs" textLength="0" x="874" y="294.6528"/><!--reverse link Link provider to Add provider--><path d="M856.5,403.3056 C856.5,423.9388 856.5,448.4973 856.5,466.8446 " fill="none" id="Link provider&lt;-Add provider" style="stroke: #A80036; stroke-width: 1.0;"/><polygon fill="#FFFFFF" points="856.5,390.0964,852.5,396.0964,856.5,402.0964,860.5,396.0964,856.5,390.0964" style="stroke: #A80036; stroke-width: 1.0;"/><!--link Link provider to Home--><path d="M807.9185,335.9162 C794.6581,327.3044 780.8355,317.0891 769.5,305.9531 C751.4729,288.2432 757.3026,274.6525 737.5,258.9531 C706.3696,234.273 663.318,219.3066 631.6712,210.9441 " fill="none" id="Link provider-&gt;Home" style="stroke: #A80036; stroke-width: 1.0;"/><polygon fill="#A80036" points="626.6936,209.6582,634.4069,215.7824,631.5346,210.909,636.4081,208.0367,626.6936,209.6582" style="stroke: #A80036; stroke-width: 1.0;"/><text fill="#000000" font-family="sans-serif" font-size="13" lengthAdjust="spacingAndGlyphs" textLength="66" x="770.5" y="272.02">«process»</text><text fill="#000000" font-family="sans-serif" font-size="13" lengthAdjust="spacingAndGlyphs" textLength="41" x="783" y="287.1528">create</text><text fill="#000000" font-family="sans-serif" font-size="13" lengthAdjust="spacingAndGlyphs" textLength="20" x="793.5" y="302.2856">API</text><!--link API search results to Details API--><path d="M533.4111,390.0964 C504.1303,411.5253 463.2938,441.4113 432.941,463.6248 " fill="none" id="API search results-&gt;Details API" style="stroke: #A80036; stroke-width: 1.0;"/><polygon fill="#A80036" points="428.5414,466.8446,438.1666,464.7575,432.5764,463.8918,433.4421,458.3016,428.5414,466.8446" style="stroke: #A80036; stroke-width: 1.0;"/><text fill="#000000" font-family="sans-serif" font-size="13" lengthAdjust="spacingAndGlyphs" textLength="37" x="493.5" y="433.02">«link»</text><!--reverse link API search results to REST APIs list --><path d="M570.5,403.3056 C570.5,423.9388 570.5,448.4973 570.5,466.8446 " fill="none" id="API search results&lt;-REST APIs list " style="stroke: #A80036; stroke-width: 1.0;"/><polygon fill="#A80036" points="570.5,390.0964,566.5,396.0964,570.5,402.0964,574.5,396.0964,570.5,390.0964" style="stroke: #A80036; stroke-width: 1.0;"/><!--link Details API to Details provider--><path d="M342.156,503.5288 C296.4025,513.5288 233.2352,530.5838 218.5,550.9531 C206.8272,567.0891 207.1612,589.5358 210.3709,607.8491 " fill="none" id="Details API-&gt;Details provider" style="stroke: #A80036; stroke-width: 1.0;"/><polygon fill="#A80036" points="211.3449,612.8961,213.5671,603.3012,210.3975,607.9867,205.712,604.8171,211.3449,612.8961" style="stroke: #A80036; stroke-width: 1.0;"/><text fill="#000000" font-family="sans-serif" font-size="13" lengthAdjust="spacingAndGlyphs" textLength="37" x="219.5" y="571.52">«link»</text><!--link Details provider to Details API--><path d="M251.5691,612.7317 C281.0812,587.6807 324.8001,550.5705 355.4976,524.5132 " fill="none" id="Details provider-&gt;Details API" style="stroke: #A80036; stroke-width: 1.0;"/><polygon fill="#A80036" points="359.5512,521.0724,350.1013,523.8472,355.7394,524.3081,355.2784,529.9462,359.5512,521.0724" style="stroke: #A80036; stroke-width: 1.0;"/><text fill="#000000" font-family="sans-serif" font-size="13" lengthAdjust="spacingAndGlyphs" textLength="37" x="322.5" y="571.52">«link»</text><!--reverse link Details API to REST API--><path d="M386.3514,534.5398 C385.7001,540.0528 385.0649,545.6397 384.5,550.9531 C382.3022,571.6249 380.2133,595.0408 378.7215,612.6642 " fill="none" id="Details API&lt;-REST API" style="stroke: #A80036; stroke-width: 1.0;"/><polygon fill="#A80036" points="387.9725,521.1861,383.2786,526.6603,386.5263,533.0987,391.2202,527.6245,387.9725,521.1861" style="stroke: #A80036; stroke-width: 1.0;"/><!--link Details API to Edit API--><path d="M394.3292,521.1228 C397.4419,540.0182 403.9473,564.9476 417.5,582.9531 C429.2934,598.6212 446.7569,611.0887 463.1704,620.3189 " fill="none" id="Details API-&gt;Edit API" style="stroke: #A80036; stroke-width: 1.0;"/><polygon fill="#A80036" points="467.7665,622.8364,461.7949,615.0044,463.3813,620.4343,457.9515,622.0207,467.7665,622.8364" style="stroke: #A80036; stroke-width: 1.0;"/><text fill="#000000" font-family="sans-serif" font-size="13" lengthAdjust="spacingAndGlyphs" textLength="37" x="432" y="564.02">«link»</text><text fill="#000000" font-family="sans-serif" font-size="13" lengthAdjust="spacingAndGlyphs" textLength="64" x="418.5" y="579.1528">(if logged)</text><!--link Edit API to Details API--><path d="M506.9261,612.7436 C505.2868,593.8296 500.5266,568.8941 487.5,550.9531 C476.778,536.1862 460.9582,524.5714 445.2403,515.7876 " fill="none" id="Edit API-&gt;Details API" style="stroke: #A80036; stroke-width: 1.0;"/><polygon fill="#A80036" points="440.814,513.3849,446.8154,521.1941,445.2083,515.7704,450.6321,514.1633,440.814,513.3849" style="stroke: #A80036; stroke-width: 1.0;"/><text fill="#000000" font-family="sans-serif" font-size="13" lengthAdjust="spacingAndGlyphs" textLength="66" x="503.5" y="564.02">«process»</text><text fill="#000000" font-family="sans-serif" font-size="13" lengthAdjust="spacingAndGlyphs" textLength="24" x="524.5" y="579.1528">edit</text><!--link Edit API to Add version--><path d="M520.6047,667.0809 C529.3348,684.8437 541.2327,708.4739 552.5,728.9531 C557.0928,737.3008 562.2658,746.2026 567.165,754.4297 " fill="none" id="Edit API-&gt;Add version" style="stroke: #A80036; stroke-width: 1.0;"/><polygon fill="#A80036" points="569.8532,758.923,568.6651,749.1461,567.2861,754.6323,561.7999,753.2534,569.8532,758.923" style="stroke: #A80036; stroke-width: 1.0;"/><text fill="#000000" font-family="sans-serif" font-size="13" lengthAdjust="spacingAndGlyphs" textLength="37" x="553.5" y="717.52">«link»</text><!--link Add version to Details API--><path d="M595.1945,758.6428 C608.6337,710.5778 628.0642,610.3473 578.5,550.9531 C574.0761,545.6518 499.6977,524.0535 446.0988,509.0221 " fill="none" id="Add version-&gt;Details API" style="stroke: #A80036; stroke-width: 1.0;"/><polygon fill="#A80036" points="440.9797,507.5887,448.5677,513.8674,445.7945,508.937,450.7249,506.1638,440.9797,507.5887" style="stroke: #A80036; stroke-width: 1.0;"/><text fill="#000000" font-family="sans-serif" font-size="13" lengthAdjust="spacingAndGlyphs" textLength="66" x="611.5" y="637.02">«process»</text><text fill="#000000" font-family="sans-serif" font-size="13" lengthAdjust="spacingAndGlyphs" textLength="24" x="632.5" y="652.1528">edit</text><!--link Contributions list to Details API--><path d="M306.6705,390.0964 C322.3802,409.3297 343.6545,435.3759 360.9678,456.5726 " fill="none" id="Contributions list-&gt;Details API" style="stroke: #A80036; stroke-width: 1.0;"/><polygon fill="#A80036" points="369.3579,466.8446,368.6603,459.6673,361.7668,457.5508,362.4644,464.7281,369.3579,466.8446" style="stroke: #A80036; stroke-width: 1.0;"/><!--reverse link REST API to Versions list--><path d="M386.0531,679.8031 C392.0374,704.7662 399.5958,736.2956 404.9148,758.4836 " fill="none" id="REST API&lt;-Versions list" style="stroke: #A80036; stroke-width: 1.0;"/><polygon fill="#A80036" points="383.0012,667.0724,380.5102,673.8396,385.7988,678.7418,388.2898,671.9746,383.0012,667.0724" style="stroke: #A80036; stroke-width: 1.0;"/><!--reverse link Versions list to Version--><path d="M411.5,826.4156 C411.5,842.1469 411.5,859.7484 411.5,873.8953 " fill="none" id="Versions list&lt;-Version" style="stroke: #A80036; stroke-width: 1.0;"/><polygon fill="#A80036" points="411.5,813.2065,407.5,819.2065,411.5,825.2065,415.5,819.2065,411.5,813.2065" style="stroke: #A80036; stroke-width: 1.0;"/><!--link Contribution to Contributions list--><path d="M180.1016,362.9531 C187.4081,362.9531 194.7146,362.9531 202.0212,362.9531 " fill="none" id="Contribution-&gt;Contributions list" style="stroke: #A80036; stroke-width: 1.0;"/><polygon fill="#A80036" points="215.1729,362.9531,209.1729,358.9531,203.1729,362.9531,209.1729,366.9531,215.1729,362.9531" style="stroke: #A80036; stroke-width: 1.0;"/><!--link Provider to Details provider--><path d="M119.2285,639.9531 C126.5726,639.9531 133.9167,639.9531 141.2608,639.9531 " fill="none" id="Provider-&gt;Details provider" style="stroke: #A80036; stroke-width: 1.0;"/><polygon fill="#A80036" points="154.4802,639.9531,148.4802,635.9531,142.4802,639.9531,148.4802,643.9531,154.4802,639.9531" style="stroke: #A80036; stroke-width: 1.0;"/><!--reverse link Details provider to REST APIs list--><path d="M192.8366,677.7479 C175.0107,703.0155 151.9652,735.6821 135.8792,758.4836 " fill="none" id="Details provider&lt;-REST APIs list" style="stroke: #A80036; stroke-width: 1.0;"/><polygon fill="#A80036" points="200.3679,667.0724,193.6406,669.6693,193.4503,676.8778,200.1775,674.281,200.3679,667.0724" style="stroke: #A80036; stroke-width: 1.0;"/><!--link Details provider to Edit provider--><path d="M200.4432,667.2359 C190.3462,685.2739 181.8401,709.1547 191.5,728.9531 C196.408,739.0124 204.0443,747.8156 212.5622,755.302 " fill="none" id="Details provider-&gt;Edit provider" style="stroke: #A80036; stroke-width: 1.0;"/><polygon fill="#A80036" points="216.8065,758.8711,212.4926,750.0173,212.9797,755.6531,207.3438,756.1402,216.8065,758.8711" style="stroke: #A80036; stroke-width: 1.0;"/><text fill="#000000" font-family="sans-serif" font-size="13" lengthAdjust="spacingAndGlyphs" textLength="37" x="206" y="710.02">«link»</text><text fill="#000000" font-family="sans-serif" font-size="13" lengthAdjust="spacingAndGlyphs" textLength="64" x="192.5" y="725.1528">(if logged)</text><!--link Edit provider to Details provider--><path d="M267.6887,758.7118 C268.8154,740.6913 268.4,716.8145 261.5,696.9531 C258.3687,687.9398 253.2748,679.1517 247.6962,671.2811 " fill="none" id="Edit provider-&gt;Details provider" style="stroke: #A80036; stroke-width: 1.0;"/><polygon fill="#A80036" points="244.5566,667.0073,246.6614,676.6286,247.5168,671.0368,253.1086,671.8923,244.5566,667.0073" style="stroke: #A80036; stroke-width: 1.0;"/><text fill="#000000" font-family="sans-serif" font-size="13" lengthAdjust="spacingAndGlyphs" textLength="66" x="269.5" y="710.02">«process»</text><text fill="#000000" font-family="sans-serif" font-size="13" lengthAdjust="spacingAndGlyphs" textLength="24" x="290.5" y="725.1528">edit</text><!--reverse link Users list to Home--><path d="M514.2176,87.4611 C531.2585,113.3774 555.1677,149.7394 571.4378,174.4836 " fill="none" id="Users list&lt;-Home" style="stroke: #A80036; stroke-width: 1.0;"/><polygon fill="#A80036" points="511.3319,83.0724,512.9344,92.79,514.079,87.2502,519.6188,88.3947,511.3319,83.0724" style="stroke: #A80036; stroke-width: 1.0;"/><text fill="#000000" font-family="sans-serif" font-size="13" lengthAdjust="spacingAndGlyphs" textLength="37" x="563.5" y="126.02">«link»</text><text fill="#000000" font-family="sans-serif" font-size="13" lengthAdjust="spacingAndGlyphs" textLength="61" x="551.5" y="141.1528">(if admin)</text><!--link Users list to User profile--><path d="M476.0396,83.0724 C460.1795,107.7063 436.7722,144.0622 420.0231,170.0768 " fill="none" id="Users list-&gt;User profile" style="stroke: #A80036; stroke-width: 1.0;"/><polygon fill="#A80036" points="417.1859,174.4836,425.4212,169.0818,419.8926,170.2796,418.6948,164.751,417.1859,174.4836" style="stroke: #A80036; stroke-width: 1.0;"/><text fill="#000000" font-family="sans-serif" font-size="13" lengthAdjust="spacingAndGlyphs" textLength="37" x="468.5" y="126.02">«link»</text><text fill="#000000" font-family="sans-serif" font-size="13" lengthAdjust="spacingAndGlyphs" textLength="61" x="456.5" y="141.1528">(if admin)</text><!--
@startuml

title Diagrama de navegacion de la aplicacion
class "Home" <<(P,IndianRed) page>>
class "API search results" <<(P,IndianRed) page>>
class "Details API" <<(P,IndianRed) page>>
class "Sign up" <<(P,IndianRed) form>>
class "Sign in" <<(P,IndianRed) form>>
class "Details provider" <<(P,IndianRed) page>>
class "REST APIs list" <<(C,RoyalBlue) component>>
class "REST APIs list " <<(C,RoyalBlue) component>>
class "REST API" <<(C,RoyalBlue) component>>
class "Versions list" <<(C,RoyalBlue) component>>
class "Version" <<(C,RoyalBlue) component>>
class "Provider" <<(C,RoyalBlue) component>>
class "User profile" <<(P,IndianRed) page>>
class "Edit profile" <<(P,IndianRed) form>>
class "Contributions list" <<(C,RoyalBlue) component>>
class "Link provider" <<(P,IndianRed) form>>
class "Add provider" <<(C,RoyalBlue) component>>
class "Edit provider" <<(P,IndianRed) form>>
class "Contribution" <<(C,RoyalBlue) component>>
class "Add API" <<(P,IndianRed) form>>
class "Edit API" <<(P,IndianRed) form>>
class "Add version" <<(P,IndianRed) form>>
class "Users list" <<(P,IndianRed) page>>

"Home" - -> "API search results": <<process>>\nsearch
"Home" - -> "Sign up": <<link>>
"Home" - -> "Sign in": <<link>>
"Sign in" - -> "Home": <<process>>\nlog in
"Home" -left-> "User profile": <<link>>\n(if logged)
"User profile" -left-> "Edit profile": <<link>>
"Edit profile" -right-> "User profile": <<process>>\nedit
"User profile" *- - "Contributions list"
"Home" -right-> "Add API": <<link>>\n(if logged)
"Add API" - -> "Link provider": <<link>>\n
"Link provider" o- - "Add provider"
"Link provider" - -> "Home": <<process>>\ncreate\nAPI
"API search results" - -> "Details API": <<link>>
"API search results" *- - "REST APIs list "
"Details API" - -> "Details provider": <<link>>
"Details API" *- - "REST API"
"Details API" - -> "Edit API": <<link>>\n(if logged)
"Edit API" - -> "Details API": <<process>>\nedit
"Edit API" - -> "Add version": <<link>>
"Add version" - -> "Details API": <<process>>\nedit
"Details API" *-up- "Contributions list"
"REST API" *- - "Versions list"
"Versions list" *- - "Version"
"Contributions list" *-left- "Contribution"
"Details provider" *-left- "Provider"
"Details provider" *- - "REST APIs list"
"Details provider" - -> "Details API": <<link>>
"Details provider" - -> "Edit provider": <<link>>\n(if logged)
"Edit provider" - -> "Details provider": <<process>>\nedit
"Home" -up-> "Users list": <<link>>\n(if admin)
"Users list" - -> "User profile": <<link>>\n(if admin)
@enduml

PlantUML version 1.2019.09(Mon Aug 26 18:19:51 CEST 2019)
(GPL source distribution)
Java Runtime: OpenJDK Runtime Environment
JVM: OpenJDK 64-Bit Server VM
Java Version: 11.0.7+10-post-Ubuntu-2ubuntu218.04
Operating System: Linux
OS Version: 5.3.0-51-generic
Default Encoding: UTF-8
Language: en
Country: US
--></g></svg>