<?xml version="1.0" encoding="UTF-8" standalone="no"?><svg xmlns="http://www.w3.org/2000/svg" xmlns:xlink="http://www.w3.org/1999/xlink" contentScriptType="application/ecmascript" contentStyleType="text/css" height="917px" preserveAspectRatio="none" style="width:924px;height:917px;" version="1.1" viewBox="0 0 924 917" width="924px" zoomAndPan="magnify"><defs><filter height="300%" id="f1s81xsru3xeh0" width="300%" x="-1" y="-1"><feGaussianBlur result="blurOut" stdDeviation="2.0"/><feColorMatrix in="blurOut" result="blurOut2" type="matrix" values="0 0 0 0 0 0 0 0 0 0 0 0 0 0 0 0 0 0 .4 0"/><feOffset dx="4.0" dy="4.0" in="blurOut2" result="blurOut3"/><feBlend in="SourceGraphic" in2="blurOut3" mode="normal"/></filter></defs><g><!--class Home--><rect fill="#FEFECE" filter="url(#f1s81xsru3xeh0)" height="53.9375" id="Home" style="stroke: #A80036; stroke-width: 1.5;" width="74" x="552.5" y="154"/><ellipse cx="567.5" cy="172.9688" fill="#CD5C5C" rx="11" ry="11" style="stroke: #A80036; stroke-width: 1.0;"/><path d="M567.2969,168.6406 L567.2969,172.2656 L568.2969,172.2656 Q569.5,172.2656 569.9844,171.8594 Q570.4688,171.4531 570.4688,170.4531 Q570.4688,169.4531 569.9844,169.0469 Q569.5,168.6406 568.2969,168.6406 L567.2969,168.6406 Z M564.8438,166.5781 L568.2031,166.5781 Q570.7656,166.5781 571.8906,167.5 Q573.0156,168.4063 573.0156,170.4531 Q573.0156,172.5 571.8906,173.4219 Q570.7656,174.3281 568.2031,174.3281 L567.2969,174.3281 L567.2969,178.9688 L564.8438,178.9688 L564.8438,166.5781 Z "/><text fill="#000000" font-family="sans-serif" font-size="12" font-style="italic" lengthAdjust="spacingAndGlyphs" textLength="46" x="579.5" y="170.1387">«page»</text><text fill="#000000" font-family="sans-serif" font-size="12" lengthAdjust="spacingAndGlyphs" textLength="36" x="584.5" y="184.1074">Home</text><line style="stroke: #A80036; stroke-width: 1.5;" x1="553.5" x2="625.5" y1="191.9375" y2="191.9375"/><line style="stroke: #A80036; stroke-width: 1.5;" x1="553.5" x2="625.5" y1="199.9375" y2="199.9375"/><!--class API search results--><rect fill="#FEFECE" filter="url(#f1s81xsru3xeh0)" height="53.9375" id="API search results" style="stroke: #A80036; stroke-width: 1.5;" width="145" x="498" y="315"/><ellipse cx="513" cy="333.9688" fill="#CD5C5C" rx="11" ry="11" style="stroke: #A80036; stroke-width: 1.0;"/><path d="M512.7969,329.6406 L512.7969,333.2656 L513.7969,333.2656 Q515,333.2656 515.4844,332.8594 Q515.9688,332.4531 515.9688,331.4531 Q515.9688,330.4531 515.4844,330.0469 Q515,329.6406 513.7969,329.6406 L512.7969,329.6406 Z M510.3438,327.5781 L513.7031,327.5781 Q516.2656,327.5781 517.3906,328.5 Q518.5156,329.4063 518.5156,331.4531 Q518.5156,333.5 517.3906,334.4219 Q516.2656,335.3281 513.7031,335.3281 L512.7969,335.3281 L512.7969,339.9688 L510.3438,339.9688 L510.3438,327.5781 Z "/><text fill="#000000" font-family="sans-serif" font-size="12" font-style="italic" lengthAdjust="spacingAndGlyphs" textLength="46" x="560.5" y="331.1387">«page»</text><text fill="#000000" font-family="sans-serif" font-size="12" lengthAdjust="spacingAndGlyphs" textLength="113" x="527" y="345.1074">API search results</text><line style="stroke: #A80036; stroke-width: 1.5;" x1="499" x2="642" y1="352.9375" y2="352.9375"/><line style="stroke: #A80036; stroke-width: 1.5;" x1="499" x2="642" y1="360.9375" y2="360.9375"/><!--class Details API--><rect fill="#FEFECE" filter="url(#f1s81xsru3xeh0)" height="53.9375" id="Details API" style="stroke: #A80036; stroke-width: 1.5;" width="98" x="342.5" y="446"/><ellipse cx="357.5" cy="464.9688" fill="#CD5C5C" rx="11" ry="11" style="stroke: #A80036; stroke-width: 1.0;"/><path d="M357.2969,460.6406 L357.2969,464.2656 L358.2969,464.2656 Q359.5,464.2656 359.9844,463.8594 Q360.4688,463.4531 360.4688,462.4531 Q360.4688,461.4531 359.9844,461.0469 Q359.5,460.6406 358.2969,460.6406 L357.2969,460.6406 Z M354.8438,458.5781 L358.2031,458.5781 Q360.7656,458.5781 361.8906,459.5 Q363.0156,460.4063 363.0156,462.4531 Q363.0156,464.5 361.8906,465.4219 Q360.7656,466.3281 358.2031,466.3281 L357.2969,466.3281 L357.2969,470.9688 L354.8438,470.9688 L354.8438,458.5781 Z "/><text fill="#000000" font-family="sans-serif" font-size="12" font-style="italic" lengthAdjust="spacingAndGlyphs" textLength="46" x="381.5" y="462.1387">«page»</text><text fill="#000000" font-family="sans-serif" font-size="12" lengthAdjust="spacingAndGlyphs" textLength="66" x="371.5" y="476.1074">Details API</text><line style="stroke: #A80036; stroke-width: 1.5;" x1="343.5" x2="439.5" y1="483.9375" y2="483.9375"/><line style="stroke: #A80036; stroke-width: 1.5;" x1="343.5" x2="439.5" y1="491.9375" y2="491.9375"/><!--class Sign up--><rect fill="#FEFECE" filter="url(#f1s81xsru3xeh0)" height="53.9375" id="Sign up" style="stroke: #A80036; stroke-width: 1.5;" width="79" x="678" y="315"/><ellipse cx="693" cy="333.9688" fill="#CD5C5C" rx="11" ry="11" style="stroke: #A80036; stroke-width: 1.0;"/><path d="M692.7969,329.6406 L692.7969,333.2656 L693.7969,333.2656 Q695,333.2656 695.4844,332.8594 Q695.9688,332.4531 695.9688,331.4531 Q695.9688,330.4531 695.4844,330.0469 Q695,329.6406 693.7969,329.6406 L692.7969,329.6406 Z M690.3438,327.5781 L693.7031,327.5781 Q696.2656,327.5781 697.3906,328.5 Q698.5156,329.4063 698.5156,331.4531 Q698.5156,333.5 697.3906,334.4219 Q696.2656,335.3281 693.7031,335.3281 L692.7969,335.3281 L692.7969,339.9688 L690.3438,339.9688 L690.3438,327.5781 Z "/><text fill="#000000" font-family="sans-serif" font-size="12" font-style="italic" lengthAdjust="spacingAndGlyphs" textLength="42" x="709.5" y="331.1387">«form»</text><text fill="#000000" font-family="sans-serif" font-size="12" lengthAdjust="spacingAndGlyphs" textLength="47" x="707" y="345.1074">Sign up</text><line style="stroke: #A80036; stroke-width: 1.5;" x1="679" x2="756" y1="352.9375" y2="352.9375"/><line style="stroke: #A80036; stroke-width: 1.5;" x1="679" x2="756" y1="360.9375" y2="360.9375"/><!--class Sign in--><rect fill="#FEFECE" filter="url(#f1s81xsru3xeh0)" height="53.9375" id="Sign in" style="stroke: #A80036; stroke-width: 1.5;" width="74" x="388.5" y="315"/><ellipse cx="403.5" cy="333.9688" fill="#CD5C5C" rx="11" ry="11" style="stroke: #A80036; stroke-width: 1.0;"/><path d="M403.2969,329.6406 L403.2969,333.2656 L404.2969,333.2656 Q405.5,333.2656 405.9844,332.8594 Q406.4688,332.4531 406.4688,331.4531 Q406.4688,330.4531 405.9844,330.0469 Q405.5,329.6406 404.2969,329.6406 L403.2969,329.6406 Z M400.8438,327.5781 L404.2031,327.5781 Q406.7656,327.5781 407.8906,328.5 Q409.0156,329.4063 409.0156,331.4531 Q409.0156,333.5 407.8906,334.4219 Q406.7656,335.3281 404.2031,335.3281 L403.2969,335.3281 L403.2969,339.9688 L400.8438,339.9688 L400.8438,327.5781 Z "/><text fill="#000000" font-family="sans-serif" font-size="12" font-style="italic" lengthAdjust="spacingAndGlyphs" textLength="42" x="417.5" y="331.1387">«form»</text><text fill="#000000" font-family="sans-serif" font-size="12" lengthAdjust="spacingAndGlyphs" textLength="42" x="417.5" y="345.1074">Sign in</text><line style="stroke: #A80036; stroke-width: 1.5;" x1="389.5" x2="461.5" y1="352.9375" y2="352.9375"/><line style="stroke: #A80036; stroke-width: 1.5;" x1="389.5" x2="461.5" y1="360.9375" y2="360.9375"/><!--class Details provider--><rect fill="#FEFECE" filter="url(#f1s81xsru3xeh0)" height="53.9375" id="Details provider" style="stroke: #A80036; stroke-width: 1.5;" width="130" x="154.5" y="592"/><ellipse cx="169.5" cy="610.9688" fill="#CD5C5C" rx="11" ry="11" style="stroke: #A80036; stroke-width: 1.0;"/><path d="M169.2969,606.6406 L169.2969,610.2656 L170.2969,610.2656 Q171.5,610.2656 171.9844,609.8594 Q172.4688,609.4531 172.4688,608.4531 Q172.4688,607.4531 171.9844,607.0469 Q171.5,606.6406 170.2969,606.6406 L169.2969,606.6406 Z M166.8438,604.5781 L170.2031,604.5781 Q172.7656,604.5781 173.8906,605.5 Q175.0156,606.4063 175.0156,608.4531 Q175.0156,610.5 173.8906,611.4219 Q172.7656,612.3281 170.2031,612.3281 L169.2969,612.3281 L169.2969,616.9688 L166.8438,616.9688 L166.8438,604.5781 Z "/><text fill="#000000" font-family="sans-serif" font-size="12" font-style="italic" lengthAdjust="spacingAndGlyphs" textLength="46" x="209.5" y="608.1387">«page»</text><text fill="#000000" font-family="sans-serif" font-size="12" lengthAdjust="spacingAndGlyphs" textLength="98" x="183.5" y="622.1074">Details provider</text><line style="stroke: #A80036; stroke-width: 1.5;" x1="155.5" x2="283.5" y1="629.9375" y2="629.9375"/><line style="stroke: #A80036; stroke-width: 1.5;" x1="155.5" x2="283.5" y1="637.9375" y2="637.9375"/><!--class REST APIs list--><rect fill="#FEFECE" filter="url(#f1s81xsru3xeh0)" height="53.9375" id="REST APIs list" style="stroke: #A80036; stroke-width: 1.5;" width="115" x="59" y="738"/><ellipse cx="74" cy="756.9688" fill="#4169E1" rx="11" ry="11" style="stroke: #A80036; stroke-width: 1.0;"/><path d="M76.9688,762.6094 Q76.3906,762.9063 75.75,763.0469 Q75.1094,763.2031 74.4063,763.2031 Q71.9063,763.2031 70.5781,761.5625 Q69.2656,759.9063 69.2656,756.7813 Q69.2656,753.6563 70.5781,752 Q71.9063,750.3438 74.4063,750.3438 Q75.1094,750.3438 75.75,750.5 Q76.4063,750.6563 76.9688,750.9531 L76.9688,753.6719 Q76.3438,753.0938 75.75,752.8281 Q75.1563,752.5469 74.5313,752.5469 Q73.1875,752.5469 72.5,753.625 Q71.8125,754.6875 71.8125,756.7813 Q71.8125,758.875 72.5,759.9531 Q73.1875,761.0156 74.5313,761.0156 Q75.1563,761.0156 75.75,760.75 Q76.3438,760.4688 76.9688,759.8906 L76.9688,762.6094 Z "/><text fill="#000000" font-family="sans-serif" font-size="12" font-style="italic" lengthAdjust="spacingAndGlyphs" textLength="85" x="87" y="754.1387">«component»</text><text fill="#000000" font-family="sans-serif" font-size="12" lengthAdjust="spacingAndGlyphs" textLength="83" x="88" y="768.1074">REST APIs list</text><line style="stroke: #A80036; stroke-width: 1.5;" x1="60" x2="173" y1="775.9375" y2="775.9375"/><line style="stroke: #A80036; stroke-width: 1.5;" x1="60" x2="173" y1="783.9375" y2="783.9375"/><!--class REST APIs list --><rect fill="#FEFECE" filter="url(#f1s81xsru3xeh0)" height="53.9375" id="REST APIs list " style="stroke: #A80036; stroke-width: 1.5;" width="119" x="511" y="446"/><ellipse cx="526" cy="464.9688" fill="#4169E1" rx="11" ry="11" style="stroke: #A80036; stroke-width: 1.0;"/><path d="M528.9688,470.6094 Q528.3906,470.9063 527.75,471.0469 Q527.1094,471.2031 526.4063,471.2031 Q523.9063,471.2031 522.5781,469.5625 Q521.2656,467.9063 521.2656,464.7813 Q521.2656,461.6563 522.5781,460 Q523.9063,458.3438 526.4063,458.3438 Q527.1094,458.3438 527.75,458.5 Q528.4063,458.6563 528.9688,458.9531 L528.9688,461.6719 Q528.3438,461.0938 527.75,460.8281 Q527.1563,460.5469 526.5313,460.5469 Q525.1875,460.5469 524.5,461.625 Q523.8125,462.6875 523.8125,464.7813 Q523.8125,466.875 524.5,467.9531 Q525.1875,469.0156 526.5313,469.0156 Q527.1563,469.0156 527.75,468.75 Q528.3438,468.4688 528.9688,467.8906 L528.9688,470.6094 Z "/><text fill="#000000" font-family="sans-serif" font-size="12" font-style="italic" lengthAdjust="spacingAndGlyphs" textLength="85" x="541" y="462.1387">«component»</text><text fill="#000000" font-family="sans-serif" font-size="12" lengthAdjust="spacingAndGlyphs" textLength="83" x="540" y="476.1074">REST APIs list</text><line style="stroke: #A80036; stroke-width: 1.5;" x1="512" x2="629" y1="483.9375" y2="483.9375"/><line style="stroke: #A80036; stroke-width: 1.5;" x1="512" x2="629" y1="491.9375" y2="491.9375"/><!--class REST API--><rect fill="#FEFECE" filter="url(#f1s81xsru3xeh0)" height="53.9375" id="REST API" style="stroke: #A80036; stroke-width: 1.5;" width="113" x="320" y="592"/><ellipse cx="335" cy="610.9688" fill="#4169E1" rx="11" ry="11" style="stroke: #A80036; stroke-width: 1.0;"/><path d="M337.9688,616.6094 Q337.3906,616.9063 336.75,617.0469 Q336.1094,617.2031 335.4063,617.2031 Q332.9063,617.2031 331.5781,615.5625 Q330.2656,613.9063 330.2656,610.7813 Q330.2656,607.6563 331.5781,606 Q332.9063,604.3438 335.4063,604.3438 Q336.1094,604.3438 336.75,604.5 Q337.4063,604.6563 337.9688,604.9531 L337.9688,607.6719 Q337.3438,607.0938 336.75,606.8281 Q336.1563,606.5469 335.5313,606.5469 Q334.1875,606.5469 333.5,607.625 Q332.8125,608.6875 332.8125,610.7813 Q332.8125,612.875 333.5,613.9531 Q334.1875,615.0156 335.5313,615.0156 Q336.1563,615.0156 336.75,614.75 Q337.3438,614.4688 337.9688,613.8906 L337.9688,616.6094 Z "/><text fill="#000000" font-family="sans-serif" font-size="12" font-style="italic" lengthAdjust="spacingAndGlyphs" textLength="85" x="347" y="608.1387">«component»</text><text fill="#000000" font-family="sans-serif" font-size="12" lengthAdjust="spacingAndGlyphs" textLength="54" x="362.5" y="622.1074">REST API</text><line style="stroke: #A80036; stroke-width: 1.5;" x1="321" x2="432" y1="629.9375" y2="629.9375"/><line style="stroke: #A80036; stroke-width: 1.5;" x1="321" x2="432" y1="637.9375" y2="637.9375"/><!--class Versions list--><rect fill="#FEFECE" filter="url(#f1s81xsru3xeh0)" height="53.9375" id="Versions list" style="stroke: #A80036; stroke-width: 1.5;" width="113" x="355" y="738"/><ellipse cx="370" cy="756.9688" fill="#4169E1" rx="11" ry="11" style="stroke: #A80036; stroke-width: 1.0;"/><path d="M372.9688,762.6094 Q372.3906,762.9063 371.75,763.0469 Q371.1094,763.2031 370.4063,763.2031 Q367.9063,763.2031 366.5781,761.5625 Q365.2656,759.9063 365.2656,756.7813 Q365.2656,753.6563 366.5781,752 Q367.9063,750.3438 370.4063,750.3438 Q371.1094,750.3438 371.75,750.5 Q372.4063,750.6563 372.9688,750.9531 L372.9688,753.6719 Q372.3438,753.0938 371.75,752.8281 Q371.1563,752.5469 370.5313,752.5469 Q369.1875,752.5469 368.5,753.625 Q367.8125,754.6875 367.8125,756.7813 Q367.8125,758.875 368.5,759.9531 Q369.1875,761.0156 370.5313,761.0156 Q371.1563,761.0156 371.75,760.75 Q372.3438,760.4688 372.9688,759.8906 L372.9688,762.6094 Z "/><text fill="#000000" font-family="sans-serif" font-size="12" font-style="italic" lengthAdjust="spacingAndGlyphs" textLength="85" x="382" y="754.1387">«component»</text><text fill="#000000" font-family="sans-serif" font-size="12" lengthAdjust="spacingAndGlyphs" textLength="76" x="386.5" y="768.1074">Versions list</text><line style="stroke: #A80036; stroke-width: 1.5;" x1="356" x2="467" y1="775.9375" y2="775.9375"/><line style="stroke: #A80036; stroke-width: 1.5;" x1="356" x2="467" y1="783.9375" y2="783.9375"/><!--class Version--><rect fill="#FEFECE" filter="url(#f1s81xsru3xeh0)" height="53.9375" id="Version" style="stroke: #A80036; stroke-width: 1.5;" width="113" x="355" y="853"/><ellipse cx="370" cy="871.9688" fill="#4169E1" rx="11" ry="11" style="stroke: #A80036; stroke-width: 1.0;"/><path d="M372.9688,877.6094 Q372.3906,877.9063 371.75,878.0469 Q371.1094,878.2031 370.4063,878.2031 Q367.9063,878.2031 366.5781,876.5625 Q365.2656,874.9063 365.2656,871.7813 Q365.2656,868.6563 366.5781,867 Q367.9063,865.3438 370.4063,865.3438 Q371.1094,865.3438 371.75,865.5 Q372.4063,865.6563 372.9688,865.9531 L372.9688,868.6719 Q372.3438,868.0938 371.75,867.8281 Q371.1563,867.5469 370.5313,867.5469 Q369.1875,867.5469 368.5,868.625 Q367.8125,869.6875 367.8125,871.7813 Q367.8125,873.875 368.5,874.9531 Q369.1875,876.0156 370.5313,876.0156 Q371.1563,876.0156 371.75,875.75 Q372.3438,875.4688 372.9688,874.8906 L372.9688,877.6094 Z "/><text fill="#000000" font-family="sans-serif" font-size="12" font-style="italic" lengthAdjust="spacingAndGlyphs" textLength="85" x="382" y="869.1387">«component»</text><text fill="#000000" font-family="sans-serif" font-size="12" lengthAdjust="spacingAndGlyphs" textLength="47" x="401" y="883.1074">Version</text><line style="stroke: #A80036; stroke-width: 1.5;" x1="356" x2="467" y1="890.9375" y2="890.9375"/><line style="stroke: #A80036; stroke-width: 1.5;" x1="356" x2="467" y1="898.9375" y2="898.9375"/><!--class Provider--><rect fill="#FEFECE" filter="url(#f1s81xsru3xeh0)" height="53.9375" id="Provider" style="stroke: #A80036; stroke-width: 1.5;" width="113" x="6" y="592"/><ellipse cx="21" cy="610.9688" fill="#4169E1" rx="11" ry="11" style="stroke: #A80036; stroke-width: 1.0;"/><path d="M23.9688,616.6094 Q23.3906,616.9063 22.75,617.0469 Q22.1094,617.2031 21.4063,617.2031 Q18.9063,617.2031 17.5781,615.5625 Q16.2656,613.9063 16.2656,610.7813 Q16.2656,607.6563 17.5781,606 Q18.9063,604.3438 21.4063,604.3438 Q22.1094,604.3438 22.75,604.5 Q23.4063,604.6563 23.9688,604.9531 L23.9688,607.6719 Q23.3438,607.0938 22.75,606.8281 Q22.1563,606.5469 21.5313,606.5469 Q20.1875,606.5469 19.5,607.625 Q18.8125,608.6875 18.8125,610.7813 Q18.8125,612.875 19.5,613.9531 Q20.1875,615.0156 21.5313,615.0156 Q22.1563,615.0156 22.75,614.75 Q23.3438,614.4688 23.9688,613.8906 L23.9688,616.6094 Z "/><text fill="#000000" font-family="sans-serif" font-size="12" font-style="italic" lengthAdjust="spacingAndGlyphs" textLength="85" x="33" y="608.1387">«component»</text><text fill="#000000" font-family="sans-serif" font-size="12" lengthAdjust="spacingAndGlyphs" textLength="51" x="50" y="622.1074">Provider</text><line style="stroke: #A80036; stroke-width: 1.5;" x1="7" x2="118" y1="629.9375" y2="629.9375"/><line style="stroke: #A80036; stroke-width: 1.5;" x1="7" x2="118" y1="637.9375" y2="637.9375"/><!--class User profile--><rect fill="#FEFECE" filter="url(#f1s81xsru3xeh0)" height="53.9375" id="User profile" style="stroke: #A80036; stroke-width: 1.5;" width="104" x="347.5" y="154"/><ellipse cx="362.5" cy="172.9688" fill="#CD5C5C" rx="11" ry="11" style="stroke: #A80036; stroke-width: 1.0;"/><path d="M362.2969,168.6406 L362.2969,172.2656 L363.2969,172.2656 Q364.5,172.2656 364.9844,171.8594 Q365.4688,171.4531 365.4688,170.4531 Q365.4688,169.4531 364.9844,169.0469 Q364.5,168.6406 363.2969,168.6406 L362.2969,168.6406 Z M359.8438,166.5781 L363.2031,166.5781 Q365.7656,166.5781 366.8906,167.5 Q368.0156,168.4063 368.0156,170.4531 Q368.0156,172.5 366.8906,173.4219 Q365.7656,174.3281 363.2031,174.3281 L362.2969,174.3281 L362.2969,178.9688 L359.8438,178.9688 L359.8438,166.5781 Z "/><text fill="#000000" font-family="sans-serif" font-size="12" font-style="italic" lengthAdjust="spacingAndGlyphs" textLength="46" x="389.5" y="170.1387">«page»</text><text fill="#000000" font-family="sans-serif" font-size="12" lengthAdjust="spacingAndGlyphs" textLength="72" x="376.5" y="184.1074">User profile</text><line style="stroke: #A80036; stroke-width: 1.5;" x1="348.5" x2="450.5" y1="191.9375" y2="191.9375"/><line style="stroke: #A80036; stroke-width: 1.5;" x1="348.5" x2="450.5" y1="199.9375" y2="199.9375"/><!--class Edit profile--><rect fill="#FEFECE" filter="url(#f1s81xsru3xeh0)" height="53.9375" id="Edit profile" style="stroke: #A80036; stroke-width: 1.5;" width="99" x="146" y="154"/><ellipse cx="161" cy="172.9688" fill="#CD5C5C" rx="11" ry="11" style="stroke: #A80036; stroke-width: 1.0;"/><path d="M160.7969,168.6406 L160.7969,172.2656 L161.7969,172.2656 Q163,172.2656 163.4844,171.8594 Q163.9688,171.4531 163.9688,170.4531 Q163.9688,169.4531 163.4844,169.0469 Q163,168.6406 161.7969,168.6406 L160.7969,168.6406 Z M158.3438,166.5781 L161.7031,166.5781 Q164.2656,166.5781 165.3906,167.5 Q166.5156,168.4063 166.5156,170.4531 Q166.5156,172.5 165.3906,173.4219 Q164.2656,174.3281 161.7031,174.3281 L160.7969,174.3281 L160.7969,178.9688 L158.3438,178.9688 L158.3438,166.5781 Z "/><text fill="#000000" font-family="sans-serif" font-size="12" font-style="italic" lengthAdjust="spacingAndGlyphs" textLength="42" x="187.5" y="170.1387">«form»</text><text fill="#000000" font-family="sans-serif" font-size="12" lengthAdjust="spacingAndGlyphs" textLength="67" x="175" y="184.1074">Edit profile</text><line style="stroke: #A80036; stroke-width: 1.5;" x1="147" x2="244" y1="191.9375" y2="191.9375"/><line style="stroke: #A80036; stroke-width: 1.5;" x1="147" x2="244" y1="199.9375" y2="199.9375"/><!--class Contributions list--><rect fill="#FEFECE" filter="url(#f1s81xsru3xeh0)" height="53.9375" id="Contributions list" style="stroke: #A80036; stroke-width: 1.5;" width="138" x="215.5" y="315"/><ellipse cx="230.5" cy="333.9688" fill="#4169E1" rx="11" ry="11" style="stroke: #A80036; stroke-width: 1.0;"/><path d="M233.4688,339.6094 Q232.8906,339.9063 232.25,340.0469 Q231.6094,340.2031 230.9063,340.2031 Q228.4063,340.2031 227.0781,338.5625 Q225.7656,336.9063 225.7656,333.7813 Q225.7656,330.6563 227.0781,329 Q228.4063,327.3438 230.9063,327.3438 Q231.6094,327.3438 232.25,327.5 Q232.9063,327.6563 233.4688,327.9531 L233.4688,330.6719 Q232.8438,330.0938 232.25,329.8281 Q231.6563,329.5469 231.0313,329.5469 Q229.6875,329.5469 229,330.625 Q228.3125,331.6875 228.3125,333.7813 Q228.3125,335.875 229,336.9531 Q229.6875,338.0156 231.0313,338.0156 Q231.6563,338.0156 232.25,337.75 Q232.8438,337.4688 233.4688,336.8906 L233.4688,339.6094 Z "/><text fill="#000000" font-family="sans-serif" font-size="12" font-style="italic" lengthAdjust="spacingAndGlyphs" textLength="85" x="255" y="331.1387">«component»</text><text fill="#000000" font-family="sans-serif" font-size="12" lengthAdjust="spacingAndGlyphs" textLength="106" x="244.5" y="345.1074">Contributions list</text><line style="stroke: #A80036; stroke-width: 1.5;" x1="216.5" x2="352.5" y1="352.9375" y2="352.9375"/><line style="stroke: #A80036; stroke-width: 1.5;" x1="216.5" x2="352.5" y1="360.9375" y2="360.9375"/><!--class Link provider--><rect fill="#FEFECE" filter="url(#f1s81xsru3xeh0)" height="53.9375" id="Link provider" style="stroke: #A80036; stroke-width: 1.5;" width="111" x="801" y="315"/><ellipse cx="816" cy="333.9688" fill="#CD5C5C" rx="11" ry="11" style="stroke: #A80036; stroke-width: 1.0;"/><path d="M815.7969,329.6406 L815.7969,333.2656 L816.7969,333.2656 Q818,333.2656 818.4844,332.8594 Q818.9688,332.4531 818.9688,331.4531 Q818.9688,330.4531 818.4844,330.0469 Q818,329.6406 816.7969,329.6406 L815.7969,329.6406 Z M813.3438,327.5781 L816.7031,327.5781 Q819.2656,327.5781 820.3906,328.5 Q821.5156,329.4063 821.5156,331.4531 Q821.5156,333.5 820.3906,334.4219 Q819.2656,335.3281 816.7031,335.3281 L815.7969,335.3281 L815.7969,339.9688 L813.3438,339.9688 L813.3438,327.5781 Z "/><text fill="#000000" font-family="sans-serif" font-size="12" font-style="italic" lengthAdjust="spacingAndGlyphs" textLength="42" x="848.5" y="331.1387">«form»</text><text fill="#000000" font-family="sans-serif" font-size="12" lengthAdjust="spacingAndGlyphs" textLength="79" x="830" y="345.1074">Link provider</text><line style="stroke: #A80036; stroke-width: 1.5;" x1="802" x2="911" y1="352.9375" y2="352.9375"/><line style="stroke: #A80036; stroke-width: 1.5;" x1="802" x2="911" y1="360.9375" y2="360.9375"/><!--class Add provider--><rect fill="#FEFECE" filter="url(#f1s81xsru3xeh0)" height="53.9375" id="Add provider" style="stroke: #A80036; stroke-width: 1.5;" width="113" x="800" y="446"/><ellipse cx="815" cy="464.9688" fill="#4169E1" rx="11" ry="11" style="stroke: #A80036; stroke-width: 1.0;"/><path d="M817.9688,470.6094 Q817.3906,470.9063 816.75,471.0469 Q816.1094,471.2031 815.4063,471.2031 Q812.9063,471.2031 811.5781,469.5625 Q810.2656,467.9063 810.2656,464.7813 Q810.2656,461.6563 811.5781,460 Q812.9063,458.3438 815.4063,458.3438 Q816.1094,458.3438 816.75,458.5 Q817.4063,458.6563 817.9688,458.9531 L817.9688,461.6719 Q817.3438,461.0938 816.75,460.8281 Q816.1563,460.5469 815.5313,460.5469 Q814.1875,460.5469 813.5,461.625 Q812.8125,462.6875 812.8125,464.7813 Q812.8125,466.875 813.5,467.9531 Q814.1875,469.0156 815.5313,469.0156 Q816.1563,469.0156 816.75,468.75 Q817.3438,468.4688 817.9688,467.8906 L817.9688,470.6094 Z "/><text fill="#000000" font-family="sans-serif" font-size="12" font-style="italic" lengthAdjust="spacingAndGlyphs" textLength="85" x="827" y="462.1387">«component»</text><text fill="#000000" font-family="sans-serif" font-size="12" lengthAdjust="spacingAndGlyphs" textLength="79" x="830" y="476.1074">Add provider</text><line style="stroke: #A80036; stroke-width: 1.5;" x1="801" x2="912" y1="483.9375" y2="483.9375"/><line style="stroke: #A80036; stroke-width: 1.5;" x1="801" x2="912" y1="491.9375" y2="491.9375"/><!--class Edit provider--><rect fill="#FEFECE" filter="url(#f1s81xsru3xeh0)" height="53.9375" id="Edit provider" style="stroke: #A80036; stroke-width: 1.5;" width="111" x="209" y="738"/><ellipse cx="224" cy="756.9688" fill="#CD5C5C" rx="11" ry="11" style="stroke: #A80036; stroke-width: 1.0;"/><path d="M223.7969,752.6406 L223.7969,756.2656 L224.7969,756.2656 Q226,756.2656 226.4844,755.8594 Q226.9688,755.4531 226.9688,754.4531 Q226.9688,753.4531 226.4844,753.0469 Q226,752.6406 224.7969,752.6406 L223.7969,752.6406 Z M221.3438,750.5781 L224.7031,750.5781 Q227.2656,750.5781 228.3906,751.5 Q229.5156,752.4063 229.5156,754.4531 Q229.5156,756.5 228.3906,757.4219 Q227.2656,758.3281 224.7031,758.3281 L223.7969,758.3281 L223.7969,762.9688 L221.3438,762.9688 L221.3438,750.5781 Z "/><text fill="#000000" font-family="sans-serif" font-size="12" font-style="italic" lengthAdjust="spacingAndGlyphs" textLength="42" x="256.5" y="754.1387">«form»</text><text fill="#000000" font-family="sans-serif" font-size="12" lengthAdjust="spacingAndGlyphs" textLength="79" x="238" y="768.1074">Edit provider</text><line style="stroke: #A80036; stroke-width: 1.5;" x1="210" x2="319" y1="775.9375" y2="775.9375"/><line style="stroke: #A80036; stroke-width: 1.5;" x1="210" x2="319" y1="783.9375" y2="783.9375"/><!--class Contribution--><rect fill="#FEFECE" filter="url(#f1s81xsru3xeh0)" height="53.9375" id="Contribution" style="stroke: #A80036; stroke-width: 1.5;" width="113" x="67" y="315"/><ellipse cx="82" cy="333.9688" fill="#4169E1" rx="11" ry="11" style="stroke: #A80036; stroke-width: 1.0;"/><path d="M84.9688,339.6094 Q84.3906,339.9063 83.75,340.0469 Q83.1094,340.2031 82.4063,340.2031 Q79.9063,340.2031 78.5781,338.5625 Q77.2656,336.9063 77.2656,333.7813 Q77.2656,330.6563 78.5781,329 Q79.9063,327.3438 82.4063,327.3438 Q83.1094,327.3438 83.75,327.5 Q84.4063,327.6563 84.9688,327.9531 L84.9688,330.6719 Q84.3438,330.0938 83.75,329.8281 Q83.1563,329.5469 82.5313,329.5469 Q81.1875,329.5469 80.5,330.625 Q79.8125,331.6875 79.8125,333.7813 Q79.8125,335.875 80.5,336.9531 Q81.1875,338.0156 82.5313,338.0156 Q83.1563,338.0156 83.75,337.75 Q84.3438,337.4688 84.9688,336.8906 L84.9688,339.6094 Z "/><text fill="#000000" font-family="sans-serif" font-size="12" font-style="italic" lengthAdjust="spacingAndGlyphs" textLength="85" x="94" y="331.1387">«component»</text><text fill="#000000" font-family="sans-serif" font-size="12" lengthAdjust="spacingAndGlyphs" textLength="77" x="98" y="345.1074">Contribution</text><line style="stroke: #A80036; stroke-width: 1.5;" x1="68" x2="179" y1="352.9375" y2="352.9375"/><line style="stroke: #A80036; stroke-width: 1.5;" x1="68" x2="179" y1="360.9375" y2="360.9375"/><!--class Add API--><rect fill="#FEFECE" filter="url(#f1s81xsru3xeh0)" height="53.9375" id="Add API" style="stroke: #A80036; stroke-width: 1.5;" width="79" x="786" y="154"/><ellipse cx="801" cy="172.9688" fill="#CD5C5C" rx="11" ry="11" style="stroke: #A80036; stroke-width: 1.0;"/><path d="M800.7969,168.6406 L800.7969,172.2656 L801.7969,172.2656 Q803,172.2656 803.4844,171.8594 Q803.9688,171.4531 803.9688,170.4531 Q803.9688,169.4531 803.4844,169.0469 Q803,168.6406 801.7969,168.6406 L800.7969,168.6406 Z M798.3438,166.5781 L801.7031,166.5781 Q804.2656,166.5781 805.3906,167.5 Q806.5156,168.4063 806.5156,170.4531 Q806.5156,172.5 805.3906,173.4219 Q804.2656,174.3281 801.7031,174.3281 L800.7969,174.3281 L800.7969,178.9688 L798.3438,178.9688 L798.3438,166.5781 Z "/><text fill="#000000" font-family="sans-serif" font-size="12" font-style="italic" lengthAdjust="spacingAndGlyphs" textLength="42" x="817.5" y="170.1387">«form»</text><text fill="#000000" font-family="sans-serif" font-size="12" lengthAdjust="spacingAndGlyphs" textLength="47" x="815" y="184.1074">Add API</text><line style="stroke: #A80036; stroke-width: 1.5;" x1="787" x2="864" y1="191.9375" y2="191.9375"/><line style="stroke: #A80036; stroke-width: 1.5;" x1="787" x2="864" y1="199.9375" y2="199.9375"/><!--class Edit API--><rect fill="#FEFECE" filter="url(#f1s81xsru3xeh0)" height="53.9375" id="Edit API" style="stroke: #A80036; stroke-width: 1.5;" width="79" x="468" y="592"/><ellipse cx="483" cy="610.9688" fill="#CD5C5C" rx="11" ry="11" style="stroke: #A80036; stroke-width: 1.0;"/><path d="M482.7969,606.6406 L482.7969,610.2656 L483.7969,610.2656 Q485,610.2656 485.4844,609.8594 Q485.9688,609.4531 485.9688,608.4531 Q485.9688,607.4531 485.4844,607.0469 Q485,606.6406 483.7969,606.6406 L482.7969,606.6406 Z M480.3438,604.5781 L483.7031,604.5781 Q486.2656,604.5781 487.3906,605.5 Q488.5156,606.4063 488.5156,608.4531 Q488.5156,610.5 487.3906,611.4219 Q486.2656,612.3281 483.7031,612.3281 L482.7969,612.3281 L482.7969,616.9688 L480.3438,616.9688 L480.3438,604.5781 Z "/><text fill="#000000" font-family="sans-serif" font-size="12" font-style="italic" lengthAdjust="spacingAndGlyphs" textLength="42" x="499.5" y="608.1387">«form»</text><text fill="#000000" font-family="sans-serif" font-size="12" lengthAdjust="spacingAndGlyphs" textLength="47" x="497" y="622.1074">Edit API</text><line style="stroke: #A80036; stroke-width: 1.5;" x1="469" x2="546" y1="629.9375" y2="629.9375"/><line style="stroke: #A80036; stroke-width: 1.5;" x1="469" x2="546" y1="637.9375" y2="637.9375"/><!--class Add version--><rect fill="#FEFECE" filter="url(#f1s81xsru3xeh0)" height="53.9375" id="Add version" style="stroke: #A80036; stroke-width: 1.5;" width="105" x="534" y="738"/><ellipse cx="549" cy="756.9688" fill="#CD5C5C" rx="11" ry="11" style="stroke: #A80036; stroke-width: 1.0;"/><path d="M548.7969,752.6406 L548.7969,756.2656 L549.7969,756.2656 Q551,756.2656 551.4844,755.8594 Q551.9688,755.4531 551.9688,754.4531 Q551.9688,753.4531 551.4844,753.0469 Q551,752.6406 549.7969,752.6406 L548.7969,752.6406 Z M546.3438,750.5781 L549.7031,750.5781 Q552.2656,750.5781 553.3906,751.5 Q554.5156,752.4063 554.5156,754.4531 Q554.5156,756.5 553.3906,757.4219 Q552.2656,758.3281 549.7031,758.3281 L548.7969,758.3281 L548.7969,762.9688 L546.3438,762.9688 L546.3438,750.5781 Z "/><text fill="#000000" font-family="sans-serif" font-size="12" font-style="italic" lengthAdjust="spacingAndGlyphs" textLength="42" x="578.5" y="754.1387">«form»</text><text fill="#000000" font-family="sans-serif" font-size="12" lengthAdjust="spacingAndGlyphs" textLength="73" x="563" y="768.1074">Add version</text><line style="stroke: #A80036; stroke-width: 1.5;" x1="535" x2="638" y1="775.9375" y2="775.9375"/><line style="stroke: #A80036; stroke-width: 1.5;" x1="535" x2="638" y1="783.9375" y2="783.9375"/><!--class Users list--><rect fill="#FEFECE" filter="url(#f1s81xsru3xeh0)" height="53.9375" id="Users list" style="stroke: #A80036; stroke-width: 1.5;" width="90" x="448.5" y="8"/><ellipse cx="463.5" cy="26.9688" fill="#CD5C5C" rx="11" ry="11" style="stroke: #A80036; stroke-width: 1.0;"/><path d="M463.2969,22.6406 L463.2969,26.2656 L464.2969,26.2656 Q465.5,26.2656 465.9844,25.8594 Q466.4688,25.4531 466.4688,24.4531 Q466.4688,23.4531 465.9844,23.0469 Q465.5,22.6406 464.2969,22.6406 L463.2969,22.6406 Z M460.8438,20.5781 L464.2031,20.5781 Q466.7656,20.5781 467.8906,21.5 Q469.0156,22.4063 469.0156,24.4531 Q469.0156,26.5 467.8906,27.4219 Q466.7656,28.3281 464.2031,28.3281 L463.2969,28.3281 L463.2969,32.9688 L460.8438,32.9688 L460.8438,20.5781 Z "/><text fill="#000000" font-family="sans-serif" font-size="12" font-style="italic" lengthAdjust="spacingAndGlyphs" textLength="46" x="483.5" y="24.1387">«page»</text><text fill="#000000" font-family="sans-serif" font-size="12" lengthAdjust="spacingAndGlyphs" textLength="58" x="477.5" y="38.1074">Users list</text><line style="stroke: #A80036; stroke-width: 1.5;" x1="449.5" x2="537.5" y1="45.9375" y2="45.9375"/><line style="stroke: #A80036; stroke-width: 1.5;" x1="449.5" x2="537.5" y1="53.9375" y2="53.9375"/><!--link Home to API search results--><path d="M586.2769,208.3115 C582.9641,236.3831 577.8081,280.0738 574.2989,309.8089 " fill="none" id="Home-&gt;API search results" style="stroke: #A80036; stroke-width: 1.0;"/><polygon fill="#A80036" points="573.7071,314.8237,578.7346,306.3547,574.2932,309.8582,570.7897,305.4168,573.7071,314.8237" style="stroke: #A80036; stroke-width: 1.0;"/><text fill="#000000" font-family="sans-serif" font-size="13" lengthAdjust="spacingAndGlyphs" textLength="66" x="583.5" y="258.5669">«process»</text><text fill="#000000" font-family="sans-serif" font-size="13" lengthAdjust="spacingAndGlyphs" textLength="43" x="595" y="273.6997">search</text><!--link Home to Sign up--><path d="M626.8571,207.7248 C637.8149,216.6088 649.3107,227.05 658.5,238 C676.9382,259.9711 692.6604,288.5216 703.2272,310.1488 " fill="none" id="Home-&gt;Sign up" style="stroke: #A80036; stroke-width: 1.0;"/><polygon fill="#A80036" points="705.4029,314.6539,705.0909,304.81,703.2285,310.1515,697.887,308.2891,705.4029,314.6539" style="stroke: #A80036; stroke-width: 1.0;"/><text fill="#000000" font-family="sans-serif" font-size="13" lengthAdjust="spacingAndGlyphs" textLength="37" x="691.5" y="266.0669">«link»</text><!--link Home to Sign in--><path d="M552.0904,189.6957 C499.4274,202.3092 408.7765,225.5321 399.5,238 C383.9422,258.9102 393.1857,288.0643 404.752,310.186 " fill="none" id="Home-&gt;Sign in" style="stroke: #A80036; stroke-width: 1.0;"/><polygon fill="#A80036" points="407.2473,314.7942,406.4793,304.9753,404.8665,310.3974,399.4444,308.7846,407.2473,314.7942" style="stroke: #A80036; stroke-width: 1.0;"/><text fill="#000000" font-family="sans-serif" font-size="13" lengthAdjust="spacingAndGlyphs" textLength="37" x="400.5" y="266.0669">«link»</text><!--link Sign in to Home--><path d="M441.8549,314.7266 C456.0703,292.4423 478.1619,260.9817 502.5,238 C515.9449,225.3044 532.555,213.6448 547.6464,204.2239 " fill="none" id="Sign in-&gt;Home" style="stroke: #A80036; stroke-width: 1.0;"/><polygon fill="#A80036" points="552.276,201.3733,542.515,202.6859,548.0184,203.9948,546.7095,209.4982,552.276,201.3733" style="stroke: #A80036; stroke-width: 1.0;"/><text fill="#000000" font-family="sans-serif" font-size="13" lengthAdjust="spacingAndGlyphs" textLength="66" x="503.5" y="258.5669">«process»</text><text fill="#000000" font-family="sans-serif" font-size="13" lengthAdjust="spacingAndGlyphs" textLength="34" x="519.5" y="273.6997">log in</text><!--reverse link User profile to Home--><path d="M456.9847,181 C487.996,181 525.3613,181 552.4984,181 " fill="none" id="User profile&lt;-Home" style="stroke: #A80036; stroke-width: 1.0;"/><polygon fill="#A80036" points="451.6696,181,460.6696,185,456.6696,181,460.6696,177,451.6696,181" style="stroke: #A80036; stroke-width: 1.0;"/><text fill="#000000" font-family="sans-serif" font-size="13" lengthAdjust="spacingAndGlyphs" textLength="37" x="483.5" y="159.0669">«link»</text><text fill="#000000" font-family="sans-serif" font-size="13" lengthAdjust="spacingAndGlyphs" textLength="64" x="470" y="174.1997">(if logged)</text><!--reverse link Edit profile to User profile--><path d="M250.766,196.4891 C259.4004,198.3608 268.2707,199.9717 276.75,201 C300.0067,203.8203 325.5993,200.6573 347.3702,196.0762 " fill="none" id="Edit profile&lt;-User profile" style="stroke: #A80036; stroke-width: 1.0;"/><polygon fill="#A80036" points="245.4259,195.2928,253.3338,201.1634,250.305,196.3858,255.0826,193.3569,245.4259,195.2928" style="stroke: #A80036; stroke-width: 1.0;"/><text fill="#000000" font-family="sans-serif" font-size="13" lengthAdjust="spacingAndGlyphs" textLength="37" x="277.75" y="197.0669">«link»</text><!--link Edit profile to User profile--><path d="M245.1432,181 C274.4647,181 311.7059,181 342.2617,181 " fill="none" id="Edit profile-&gt;User profile" style="stroke: #A80036; stroke-width: 1.0;"/><polygon fill="#A80036" points="347.4949,181,338.4949,177,342.4949,181,338.4949,185,347.4949,181" style="stroke: #A80036; stroke-width: 1.0;"/><text fill="#000000" font-family="sans-serif" font-size="13" lengthAdjust="spacingAndGlyphs" textLength="66" x="263.25" y="159.0669">«process»</text><text fill="#000000" font-family="sans-serif" font-size="13" lengthAdjust="spacingAndGlyphs" textLength="24" x="284.25" y="174.1997">edit</text><!--reverse link User profile to Contributions list--><path d="M372.3391,219.0253 C351.3071,248.47 322.6863,288.5392 303.9116,314.8237 " fill="none" id="User profile&lt;-Contributions list" style="stroke: #A80036; stroke-width: 1.0;"/><polygon fill="#A80036" points="379.9918,208.3115,373.2494,210.8689,373.0169,218.0763,379.7593,215.5189,379.9918,208.3115" style="stroke: #A80036; stroke-width: 1.0;"/><!--link Home to Add API--><path d="M626.6346,181 C668.3811,181 736.1459,181 780.7717,181 " fill="none" id="Home-&gt;Add API" style="stroke: #A80036; stroke-width: 1.0;"/><polygon fill="#A80036" points="785.8253,181,776.8253,177,780.8253,181,776.8253,185,785.8253,181" style="stroke: #A80036; stroke-width: 1.0;"/><text fill="#000000" font-family="sans-serif" font-size="13" lengthAdjust="spacingAndGlyphs" textLength="37" x="687.75" y="159.0669">«link»</text><text fill="#000000" font-family="sans-serif" font-size="13" lengthAdjust="spacingAndGlyphs" textLength="64" x="674.25" y="174.1997">(if logged)</text><!--link Add API to Link provider--><path d="M836.4764,208.1659 C839.8535,217.4886 843.266,228.0756 845.5,238 C850.8299,261.6773 853.5929,288.9834 855.0164,309.6731 " fill="none" id="Add API-&gt;Link provider" style="stroke: #A80036; stroke-width: 1.0;"/><polygon fill="#A80036" points="855.3502,314.7845,858.7551,305.5429,855.0243,309.7951,850.7722,306.0643,855.3502,314.7845" style="stroke: #A80036; stroke-width: 1.0;"/><text fill="#000000" font-family="sans-serif" font-size="13" lengthAdjust="spacingAndGlyphs" textLength="37" x="853.5" y="258.5669">«link»</text><text fill="#000000" font-family="sans-serif" font-size="13" lengthAdjust="spacingAndGlyphs" textLength="0" x="874" y="273.6997"/><!--reverse link Link provider to Add provider--><path d="M856.5,382.3525 C856.5,402.9857 856.5,427.5442 856.5,445.8915 " fill="none" id="Link provider&lt;-Add provider" style="stroke: #A80036; stroke-width: 1.0;"/><polygon fill="#FFFFFF" points="856.5,369.1433,852.5,375.1433,856.5,381.1433,860.5,375.1433,856.5,369.1433" style="stroke: #A80036; stroke-width: 1.0;"/><!--link Link provider to Home--><path d="M807.9185,314.9631 C794.6581,306.3513 780.8355,296.136 769.5,285 C751.4729,267.2901 757.3026,253.6994 737.5,238 C706.3696,213.3199 663.318,198.3535 631.6712,189.991 " fill="none" id="Link provider-&gt;Home" style="stroke: #A80036; stroke-width: 1.0;"/><polygon fill="#A80036" points="626.6936,188.7051,634.4069,194.8292,631.5346,189.9558,636.4081,187.0836,626.6936,188.7051" style="stroke: #A80036; stroke-width: 1.0;"/><text fill="#000000" font-family="sans-serif" font-size="13" lengthAdjust="spacingAndGlyphs" textLength="66" x="770.5" y="251.0669">«process»</text><text fill="#000000" font-family="sans-serif" font-size="13" lengthAdjust="spacingAndGlyphs" textLength="41" x="783" y="266.1997">create</text><text fill="#000000" font-family="sans-serif" font-size="13" lengthAdjust="spacingAndGlyphs" textLength="20" x="793.5" y="281.3325">API</text><!--link API search results to Details API--><path d="M533.4111,369.1433 C504.1303,390.5722 463.2938,420.4582 432.941,442.6717 " fill="none" id="API search results-&gt;Details API" style="stroke: #A80036; stroke-width: 1.0;"/><polygon fill="#A80036" points="428.5414,445.8915,438.1666,443.8044,432.5764,442.9387,433.4421,437.3485,428.5414,445.8915" style="stroke: #A80036; stroke-width: 1.0;"/><text fill="#000000" font-family="sans-serif" font-size="13" lengthAdjust="spacingAndGlyphs" textLength="37" x="493.5" y="412.0669">«link»</text><!--reverse link API search results to REST APIs list --><path d="M570.5,382.3525 C570.5,402.9857 570.5,427.5442 570.5,445.8915 " fill="none" id="API search results&lt;-REST APIs list " style="stroke: #A80036; stroke-width: 1.0;"/><polygon fill="#A80036" points="570.5,369.1433,566.5,375.1433,570.5,381.1433,574.5,375.1433,570.5,369.1433" style="stroke: #A80036; stroke-width: 1.0;"/><!--link Details API to Details provider--><path d="M342.156,482.5757 C296.4025,492.5757 233.2352,509.6307 218.5,530 C206.8272,546.136 207.1612,568.5827 210.3709,586.896 " fill="none" id="Details API-&gt;Details provider" style="stroke: #A80036; stroke-width: 1.0;"/><polygon fill="#A80036" points="211.3449,591.943,213.5671,582.3481,210.3975,587.0336,205.712,583.864,211.3449,591.943" style="stroke: #A80036; stroke-width: 1.0;"/><text fill="#000000" font-family="sans-serif" font-size="13" lengthAdjust="spacingAndGlyphs" textLength="37" x="219.5" y="550.5669">«link»</text><!--link Details provider to Details API--><path d="M251.5691,591.7786 C281.0812,566.7276 324.8001,529.6174 355.4976,503.5601 " fill="none" id="Details provider-&gt;Details API" style="stroke: #A80036; stroke-width: 1.0;"/><polygon fill="#A80036" points="359.5512,500.1193,350.1013,502.8941,355.7394,503.355,355.2784,508.9931,359.5512,500.1193" style="stroke: #A80036; stroke-width: 1.0;"/><text fill="#000000" font-family="sans-serif" font-size="13" lengthAdjust="spacingAndGlyphs" textLength="37" x="322.5" y="550.5669">«link»</text><!--reverse link Details API to REST API--><path d="M386.3514,513.5867 C385.7001,519.0997 385.0649,524.6866 384.5,530 C382.3022,550.6718 380.2133,574.0877 378.7215,591.7111 " fill="none" id="Details API&lt;-REST API" style="stroke: #A80036; stroke-width: 1.0;"/><polygon fill="#A80036" points="387.9725,500.233,383.2786,505.7072,386.5263,512.1455,391.2202,506.6713,387.9725,500.233" style="stroke: #A80036; stroke-width: 1.0;"/><!--link Details API to Edit API--><path d="M394.3292,500.1697 C397.4419,519.0651 403.9473,543.9945 417.5,562 C429.2934,577.6681 446.7569,590.1356 463.1704,599.3658 " fill="none" id="Details API-&gt;Edit API" style="stroke: #A80036; stroke-width: 1.0;"/><polygon fill="#A80036" points="467.7665,601.8833,461.7949,594.0513,463.3813,599.4811,457.9515,601.0676,467.7665,601.8833" style="stroke: #A80036; stroke-width: 1.0;"/><text fill="#000000" font-family="sans-serif" font-size="13" lengthAdjust="spacingAndGlyphs" textLength="37" x="432" y="543.0669">«link»</text><text fill="#000000" font-family="sans-serif" font-size="13" lengthAdjust="spacingAndGlyphs" textLength="64" x="418.5" y="558.1997">(if logged)</text><!--link Edit API to Details API--><path d="M506.9261,591.7905 C505.2868,572.8765 500.5266,547.941 487.5,530 C476.778,515.2331 460.9582,503.6183 445.2403,494.8345 " fill="none" id="Edit API-&gt;Details API" style="stroke: #A80036; stroke-width: 1.0;"/><polygon fill="#A80036" points="440.814,492.4318,446.8154,500.241,445.2083,494.8172,450.6321,493.2101,440.814,492.4318" style="stroke: #A80036; stroke-width: 1.0;"/><text fill="#000000" font-family="sans-serif" font-size="13" lengthAdjust="spacingAndGlyphs" textLength="66" x="503.5" y="543.0669">«process»</text><text fill="#000000" font-family="sans-serif" font-size="13" lengthAdjust="spacingAndGlyphs" textLength="24" x="524.5" y="558.1997">edit</text><!--link Edit API to Add version--><path d="M520.6047,646.1278 C529.3348,663.8906 541.2327,687.5208 552.5,708 C557.0928,716.3477 562.2658,725.2495 567.165,733.4766 " fill="none" id="Edit API-&gt;Add version" style="stroke: #A80036; stroke-width: 1.0;"/><polygon fill="#A80036" points="569.8532,737.9699,568.6651,728.193,567.2861,733.6792,561.7999,732.3003,569.8532,737.9699" style="stroke: #A80036; stroke-width: 1.0;"/><text fill="#000000" font-family="sans-serif" font-size="13" lengthAdjust="spacingAndGlyphs" textLength="37" x="553.5" y="696.5669">«link»</text><!--link Add version to Details API--><path d="M595.1945,737.6897 C608.6337,689.6247 628.0642,589.3942 578.5,530 C574.0761,524.6987 499.6977,503.1004 446.0988,488.069 " fill="none" id="Add version-&gt;Details API" style="stroke: #A80036; stroke-width: 1.0;"/><polygon fill="#A80036" points="440.9797,486.6356,448.5677,492.9143,445.7945,487.9839,450.7249,485.2106,440.9797,486.6356" style="stroke: #A80036; stroke-width: 1.0;"/><text fill="#000000" font-family="sans-serif" font-size="13" lengthAdjust="spacingAndGlyphs" textLength="66" x="611.5" y="616.0669">«process»</text><text fill="#000000" font-family="sans-serif" font-size="13" lengthAdjust="spacingAndGlyphs" textLength="24" x="632.5" y="631.1997">edit</text><!--link Contributions list to Details API--><path d="M306.6705,369.1433 C322.3802,388.3766 343.6545,414.4228 360.9678,435.6195 " fill="none" id="Contributions list-&gt;Details API" style="stroke: #A80036; stroke-width: 1.0;"/><polygon fill="#A80036" points="369.3579,445.8915,368.6603,438.7142,361.7668,436.5977,362.4644,443.775,369.3579,445.8915" style="stroke: #A80036; stroke-width: 1.0;"/><!--reverse link REST API to Versions list--><path d="M386.0531,658.85 C392.0374,683.8131 399.5958,715.3425 404.9148,737.5305 " fill="none" id="REST API&lt;-Versions list" style="stroke: #A80036; stroke-width: 1.0;"/><polygon fill="#A80036" points="383.0012,646.1193,380.5102,652.8865,385.7988,657.7886,388.2898,651.0214,383.0012,646.1193" style="stroke: #A80036; stroke-width: 1.0;"/><!--reverse link Versions list to Version--><path d="M411.5,805.4625 C411.5,821.1938 411.5,838.7953 411.5,852.9422 " fill="none" id="Versions list&lt;-Version" style="stroke: #A80036; stroke-width: 1.0;"/><polygon fill="#A80036" points="411.5,792.2534,407.5,798.2534,411.5,804.2534,415.5,798.2534,411.5,792.2534" style="stroke: #A80036; stroke-width: 1.0;"/><!--link Contribution to Contributions list--><path d="M180.1016,342 C187.4081,342 194.7146,342 202.0212,342 " fill="none" id="Contribution-&gt;Contributions list" style="stroke: #A80036; stroke-width: 1.0;"/><polygon fill="#A80036" points="215.1729,342,209.1729,338,203.1729,342,209.1729,346,215.1729,342" style="stroke: #A80036; stroke-width: 1.0;"/><!--link Provider to Details provider--><path d="M119.2285,619 C126.5726,619 133.9167,619 141.2608,619 " fill="none" id="Provider-&gt;Details provider" style="stroke: #A80036; stroke-width: 1.0;"/><polygon fill="#A80036" points="154.4802,619,148.4802,615,142.4802,619,148.4802,623,154.4802,619" style="stroke: #A80036; stroke-width: 1.0;"/><!--reverse link Details provider to REST APIs list--><path d="M192.8366,656.7948 C175.0107,682.0624 151.9652,714.729 135.8792,737.5305 " fill="none" id="Details provider&lt;-REST APIs list" style="stroke: #A80036; stroke-width: 1.0;"/><polygon fill="#A80036" points="200.3679,646.1193,193.6406,648.7161,193.4503,655.9247,200.1775,653.3279,200.3679,646.1193" style="stroke: #A80036; stroke-width: 1.0;"/><!--link Details provider to Edit provider--><path d="M200.4432,646.2828 C190.3462,664.3208 181.8401,688.2016 191.5,708 C196.408,718.0593 204.0443,726.8625 212.5622,734.3489 " fill="none" id="Details provider-&gt;Edit provider" style="stroke: #A80036; stroke-width: 1.0;"/><polygon fill="#A80036" points="216.8065,737.918,212.4926,729.0642,212.9797,734.7,207.3438,735.1871,216.8065,737.918" style="stroke: #A80036; stroke-width: 1.0;"/><text fill="#000000" font-family="sans-serif" font-size="13" lengthAdjust="spacingAndGlyphs" textLength="37" x="206" y="689.0669">«link»</text><text fill="#000000" font-family="sans-serif" font-size="13" lengthAdjust="spacingAndGlyphs" textLength="64" x="192.5" y="704.1997">(if logged)</text><!--link Edit provider to Details provider--><path d="M267.6887,737.7587 C268.8154,719.7382 268.4,695.8614 261.5,676 C258.3687,666.9867 253.2748,658.1986 247.6962,650.328 " fill="none" id="Edit provider-&gt;Details provider" style="stroke: #A80036; stroke-width: 1.0;"/><polygon fill="#A80036" points="244.5566,646.0542,246.6614,655.6755,247.5168,650.0837,253.1086,650.9391,244.5566,646.0542" style="stroke: #A80036; stroke-width: 1.0;"/><text fill="#000000" font-family="sans-serif" font-size="13" lengthAdjust="spacingAndGlyphs" textLength="66" x="269.5" y="689.0669">«process»</text><text fill="#000000" font-family="sans-serif" font-size="13" lengthAdjust="spacingAndGlyphs" textLength="24" x="290.5" y="704.1997">edit</text><!--reverse link Users list to Home--><path d="M514.2176,66.508 C531.2585,92.4243 555.1677,128.7863 571.4378,153.5305 " fill="none" id="Users list&lt;-Home" style="stroke: #A80036; stroke-width: 1.0;"/><polygon fill="#A80036" points="511.3319,62.1193,512.9344,71.8369,514.079,66.297,519.6188,67.4416,511.3319,62.1193" style="stroke: #A80036; stroke-width: 1.0;"/><text fill="#000000" font-family="sans-serif" font-size="13" lengthAdjust="spacingAndGlyphs" textLength="37" x="563.5" y="105.0669">«link»</text><text fill="#000000" font-family="sans-serif" font-size="13" lengthAdjust="spacingAndGlyphs" textLength="61" x="551.5" y="120.1997">(if admin)</text><!--link Users list to User profile--><path d="M476.0396,62.1193 C460.1795,86.7532 436.7722,123.1091 420.0231,149.1237 " fill="none" id="Users list-&gt;User profile" style="stroke: #A80036; stroke-width: 1.0;"/><polygon fill="#A80036" points="417.1859,153.5305,425.4212,148.1287,419.8926,149.3265,418.6948,143.7979,417.1859,153.5305" style="stroke: #A80036; stroke-width: 1.0;"/><text fill="#000000" font-family="sans-serif" font-size="13" lengthAdjust="spacingAndGlyphs" textLength="37" x="468.5" y="105.0669">«link»</text><text fill="#000000" font-family="sans-serif" font-size="13" lengthAdjust="spacingAndGlyphs" textLength="61" x="456.5" y="120.1997">(if admin)</text><!--
@startuml
class "Home" <<(P,IndianRed) page>>
class "API search results" <<(P,IndianRed) page>>
class "Details API" <<(P,IndianRed) page>>
class "Sign up" <<(P,IndianRed) form>>
class "Sign in" <<(P,IndianRed) form>>
class "Details provider" <<(P,IndianRed) page>>
class "REST APIs list" <<(C,RoyalBlue) component>>
class "REST APIs list " <<(C,RoyalBlue) component>>
class "REST API" <<(C,RoyalBlue) component>>
class "Versions list" <<(C,RoyalBlue) component>>
class "Version" <<(C,RoyalBlue) component>>
class "Provider" <<(C,RoyalBlue) component>>
class "User profile" <<(P,IndianRed) page>>
class "Edit profile" <<(P,IndianRed) form>>
class "Contributions list" <<(C,RoyalBlue) component>>
class "Link provider" <<(P,IndianRed) form>>
class "Add provider" <<(C,RoyalBlue) component>>
class "Edit provider" <<(P,IndianRed) form>>
class "Contribution" <<(C,RoyalBlue) component>>
class "Add API" <<(P,IndianRed) form>>
class "Edit API" <<(P,IndianRed) form>>
class "Add version" <<(P,IndianRed) form>>
class "Users list" <<(P,IndianRed) page>>
class "Users list" <<(P,IndianRed) page>>

"Home" - -> "API search results": <<process>>\nsearch
"Home" - -> "Sign up": <<link>>
"Home" - -> "Sign in": <<link>>
"Sign in" - -> "Home": <<process>>\nlog in
"Home" -left-> "User profile": <<link>>\n(if logged)
"User profile" -left-> "Edit profile": <<link>>
"Edit profile" -right-> "User profile": <<process>>\nedit
"User profile" *- - "Contributions list"
"Home" -right-> "Add API": <<link>>\n(if logged)
"Add API" - -> "Link provider": <<link>>\n
"Link provider" o- - "Add provider"
"Link provider" - -> "Home": <<process>>\ncreate\nAPI
"API search results" - -> "Details API": <<link>>
"API search results" *- - "REST APIs list "
"Details API" - -> "Details provider": <<link>>
"Details API" *- - "REST API"
"Details API" - -> "Edit API": <<link>>\n(if logged)
"Edit API" - -> "Details API": <<process>>\nedit
"Edit API" - -> "Add version": <<link>>
"Add version" - -> "Details API": <<process>>\nedit
"Details API" *-up- "Contributions list"
"REST API" *- - "Versions list"
"Versions list" *- - "Version"
"Contributions list" *-left- "Contribution"
"Details provider" *-left- "Provider"
"Details provider" *- - "REST APIs list"
"Details provider" - -> "Details API": <<link>>
"Details provider" - -> "Edit provider": <<link>>\n(if logged)
"Edit provider" - -> "Details provider": <<process>>\nedit
"Home" -up-> "Users list": <<link>>\n(if admin)
"Users list" - -> "User profile": <<link>>\n(if admin)
@enduml

PlantUML version 1.2019.09(Mon Aug 26 18:19:51 CEST 2019)
(GPL source distribution)
Java Runtime: OpenJDK Runtime Environment
JVM: OpenJDK 64-Bit Server VM
Java Version: 11.0.6+10-post-Ubuntu-1ubuntu118.04.1
Operating System: Linux
OS Version: 5.3.0-45-generic
Default Encoding: UTF-8
Language: en
Country: US
--></g></svg>